<mxfile host="65bd71144e" pages="7">
    <diagram id="W2JSRcWYimG_dt1xw5Bz" name="Page-7">
        <mxGraphModel dx="1040" dy="784" grid="1" gridSize="10" guides="1" tooltips="1" connect="1" arrows="1" fold="1" page="1" pageScale="1" pageWidth="850" pageHeight="1100" math="0" shadow="0">
            <root>
                <mxCell id="0"/>
                <mxCell id="1" parent="0"/>
                <mxCell id="aFAoaw-wPE-7Tu0Nrlc6-3" value="" style="edgeStyle=orthogonalEdgeStyle;rounded=0;orthogonalLoop=1;jettySize=auto;html=1;endArrow=none;endFill=0;dashed=1;" parent="1" source="aFAoaw-wPE-7Tu0Nrlc6-29" target="aFAoaw-wPE-7Tu0Nrlc6-2" edge="1">
                    <mxGeometry relative="1" as="geometry"/>
                </mxCell>
                <mxCell id="aFAoaw-wPE-7Tu0Nrlc6-1" value="Feature&lt;br&gt;Branches" style="image;aspect=fixed;html=1;points=[];align=center;fontSize=12;image=img/lib/azure2/general/Branch.svg;" parent="1" vertex="1">
                    <mxGeometry x="180" y="30" width="50" height="50" as="geometry"/>
                </mxCell>
                <mxCell id="aFAoaw-wPE-7Tu0Nrlc6-2" value="Feature&lt;br&gt;Branches" style="image;aspect=fixed;html=1;points=[];align=center;fontSize=12;image=img/lib/azure2/general/Branch.svg;" parent="1" vertex="1">
                    <mxGeometry x="170" y="830" width="50" height="50" as="geometry"/>
                </mxCell>
                <mxCell id="aFAoaw-wPE-7Tu0Nrlc6-4" value="" style="edgeStyle=orthogonalEdgeStyle;rounded=0;orthogonalLoop=1;jettySize=auto;html=1;endArrow=none;endFill=0;dashed=1;" parent="1" source="aFAoaw-wPE-7Tu0Nrlc6-60" target="aFAoaw-wPE-7Tu0Nrlc6-6" edge="1">
                    <mxGeometry relative="1" as="geometry"/>
                </mxCell>
                <mxCell id="aFAoaw-wPE-7Tu0Nrlc6-5" value="Main&lt;br&gt;Branch" style="image;aspect=fixed;html=1;points=[];align=center;fontSize=12;image=img/lib/azure2/general/Branch.svg;" parent="1" vertex="1">
                    <mxGeometry x="380" y="30" width="50" height="50" as="geometry"/>
                </mxCell>
                <mxCell id="aFAoaw-wPE-7Tu0Nrlc6-6" value="Main&lt;br&gt;Branch" style="image;aspect=fixed;html=1;points=[];align=center;fontSize=12;image=img/lib/azure2/general/Branch.svg;" parent="1" vertex="1">
                    <mxGeometry x="380" y="830" width="50" height="50" as="geometry"/>
                </mxCell>
                <mxCell id="aFAoaw-wPE-7Tu0Nrlc6-10" value="" style="edgeStyle=orthogonalEdgeStyle;rounded=0;orthogonalLoop=1;jettySize=auto;html=1;endArrow=none;endFill=0;dashed=1;" parent="1" target="aFAoaw-wPE-7Tu0Nrlc6-12" edge="1">
                    <mxGeometry relative="1" as="geometry">
                        <mxPoint x="805" y="640" as="sourcePoint"/>
                        <Array as="points">
                            <mxPoint x="805" y="630"/>
                            <mxPoint x="805" y="630"/>
                        </Array>
                    </mxGeometry>
                </mxCell>
                <mxCell id="aFAoaw-wPE-7Tu0Nrlc6-11" value="Release&lt;br&gt;Branches" style="image;aspect=fixed;html=1;points=[];align=center;fontSize=12;image=img/lib/azure2/general/Branch.svg;" parent="1" vertex="1">
                    <mxGeometry x="780" y="30" width="50" height="50" as="geometry"/>
                </mxCell>
                <mxCell id="aFAoaw-wPE-7Tu0Nrlc6-12" value="Release&lt;br&gt;Branches" style="image;aspect=fixed;html=1;points=[];align=center;fontSize=12;image=img/lib/azure2/general/Branch.svg;" parent="1" vertex="1">
                    <mxGeometry x="780" y="830" width="50" height="50" as="geometry"/>
                </mxCell>
                <mxCell id="aFAoaw-wPE-7Tu0Nrlc6-14" value="" style="edgeStyle=orthogonalEdgeStyle;rounded=0;orthogonalLoop=1;jettySize=auto;html=1;endArrow=none;endFill=0;dashed=1;" parent="1" source="aFAoaw-wPE-7Tu0Nrlc6-21" edge="1">
                    <mxGeometry relative="1" as="geometry">
                        <mxPoint x="195" y="40" as="sourcePoint"/>
                        <mxPoint x="195" y="240" as="targetPoint"/>
                    </mxGeometry>
                </mxCell>
                <mxCell id="aFAoaw-wPE-7Tu0Nrlc6-15" value="feature branch name format: feature/1234-TaskDescription where 1234 is DevOps Task number" style="rounded=1;whiteSpace=wrap;html=1;labelBackgroundColor=#FFFFFF;strokeColor=none;fillColor=none;" parent="1" vertex="1">
                    <mxGeometry x="102.5" y="110" width="350" height="60" as="geometry"/>
                </mxCell>
                <mxCell id="aFAoaw-wPE-7Tu0Nrlc6-16" value="" style="endArrow=classic;html=1;rounded=0;" parent="1" edge="1">
                    <mxGeometry width="50" height="50" relative="1" as="geometry">
                        <mxPoint x="400" y="170" as="sourcePoint"/>
                        <mxPoint x="200" y="170" as="targetPoint"/>
                    </mxGeometry>
                </mxCell>
                <mxCell id="aFAoaw-wPE-7Tu0Nrlc6-18" value="" style="edgeStyle=orthogonalEdgeStyle;rounded=0;orthogonalLoop=1;jettySize=auto;html=1;endArrow=none;endFill=0;dashed=1;exitX=0.5;exitY=1;exitDx=0;exitDy=0;" parent="1" source="aFAoaw-wPE-7Tu0Nrlc6-17" target="aFAoaw-wPE-7Tu0Nrlc6-17" edge="1">
                    <mxGeometry relative="1" as="geometry">
                        <mxPoint x="405" y="80" as="sourcePoint"/>
                        <mxPoint x="405" y="720" as="targetPoint"/>
                    </mxGeometry>
                </mxCell>
                <mxCell id="aFAoaw-wPE-7Tu0Nrlc6-17" value="1" style="ellipse;whiteSpace=wrap;html=1;fillColor=#000000;fontColor=#FFFFFF;" parent="1" vertex="1">
                    <mxGeometry x="400" y="160" width="10" height="10" as="geometry"/>
                </mxCell>
                <mxCell id="aFAoaw-wPE-7Tu0Nrlc6-22" value="" style="edgeStyle=orthogonalEdgeStyle;rounded=0;orthogonalLoop=1;jettySize=auto;html=1;endArrow=none;endFill=0;dashed=1;" parent="1" target="aFAoaw-wPE-7Tu0Nrlc6-21" edge="1">
                    <mxGeometry relative="1" as="geometry">
                        <mxPoint x="195" y="160" as="sourcePoint"/>
                        <mxPoint x="195" y="280" as="targetPoint"/>
                    </mxGeometry>
                </mxCell>
                <mxCell id="aFAoaw-wPE-7Tu0Nrlc6-21" value="2" style="ellipse;whiteSpace=wrap;html=1;fillColor=#000000;fontColor=#FFFFFF;" parent="1" vertex="1">
                    <mxGeometry x="190" y="200" width="10" height="10" as="geometry"/>
                </mxCell>
                <mxCell id="aFAoaw-wPE-7Tu0Nrlc6-23" value="commit format: #1234-TaskDescription" style="rounded=1;whiteSpace=wrap;html=1;" parent="1" vertex="1">
                    <mxGeometry x="90" y="210" width="230" height="30" as="geometry"/>
                </mxCell>
                <mxCell id="aFAoaw-wPE-7Tu0Nrlc6-25" value="" style="edgeStyle=orthogonalEdgeStyle;rounded=0;orthogonalLoop=1;jettySize=auto;html=1;endArrow=none;endFill=0;dashed=1;" parent="1" target="aFAoaw-wPE-7Tu0Nrlc6-24" edge="1">
                    <mxGeometry relative="1" as="geometry">
                        <mxPoint x="195" y="290" as="sourcePoint"/>
                        <mxPoint x="195" y="680" as="targetPoint"/>
                    </mxGeometry>
                </mxCell>
                <mxCell id="aFAoaw-wPE-7Tu0Nrlc6-24" value="3" style="ellipse;whiteSpace=wrap;html=1;fillColor=#000000;fontColor=#FFFFFF;" parent="1" vertex="1">
                    <mxGeometry x="190" y="320" width="10" height="10" as="geometry"/>
                </mxCell>
                <mxCell id="aFAoaw-wPE-7Tu0Nrlc6-26" value="" style="endArrow=classic;html=1;rounded=0;exitX=0;exitY=1;exitDx=0;exitDy=0;" parent="1" source="aFAoaw-wPE-7Tu0Nrlc6-27" edge="1">
                    <mxGeometry width="50" height="50" relative="1" as="geometry">
                        <mxPoint x="150" y="410" as="sourcePoint"/>
                        <mxPoint x="400" y="410" as="targetPoint"/>
                    </mxGeometry>
                </mxCell>
                <mxCell id="aFAoaw-wPE-7Tu0Nrlc6-27" value="merge feature branch if PR Approved" style="rounded=1;whiteSpace=wrap;html=1;strokeColor=none;gradientColor=none;fillColor=none;" parent="1" vertex="1">
                    <mxGeometry x="200" y="380" width="210" height="30" as="geometry"/>
                </mxCell>
                <mxCell id="aFAoaw-wPE-7Tu0Nrlc6-28" value="Create PR" style="rounded=1;whiteSpace=wrap;html=1;labelBackgroundColor=default;" parent="1" vertex="1">
                    <mxGeometry x="147.5" y="330" width="95" height="30" as="geometry"/>
                </mxCell>
                <mxCell id="aFAoaw-wPE-7Tu0Nrlc6-30" value="" style="edgeStyle=orthogonalEdgeStyle;rounded=0;orthogonalLoop=1;jettySize=auto;html=1;endArrow=none;endFill=0;dashed=1;" parent="1" target="aFAoaw-wPE-7Tu0Nrlc6-29" edge="1">
                    <mxGeometry relative="1" as="geometry">
                        <mxPoint x="195" y="360" as="sourcePoint"/>
                        <mxPoint x="195" y="680" as="targetPoint"/>
                    </mxGeometry>
                </mxCell>
                <mxCell id="aFAoaw-wPE-7Tu0Nrlc6-29" value="4" style="ellipse;whiteSpace=wrap;html=1;fillColor=#000000;fontColor=#FFFFFF;" parent="1" vertex="1">
                    <mxGeometry x="190" y="400" width="10" height="10" as="geometry"/>
                </mxCell>
                <mxCell id="aFAoaw-wPE-7Tu0Nrlc6-32" value="" style="edgeStyle=orthogonalEdgeStyle;rounded=0;orthogonalLoop=1;jettySize=auto;html=1;endArrow=none;endFill=0;dashed=1;" parent="1" source="aFAoaw-wPE-7Tu0Nrlc6-17" target="aFAoaw-wPE-7Tu0Nrlc6-31" edge="1">
                    <mxGeometry relative="1" as="geometry">
                        <mxPoint x="405" y="150" as="sourcePoint"/>
                        <mxPoint x="405" y="720" as="targetPoint"/>
                    </mxGeometry>
                </mxCell>
                <mxCell id="aFAoaw-wPE-7Tu0Nrlc6-31" value="5" style="ellipse;whiteSpace=wrap;html=1;fillColor=#000000;fontColor=#FFFFFF;" parent="1" vertex="1">
                    <mxGeometry x="400" y="440" width="10" height="10" as="geometry"/>
                </mxCell>
                <mxCell id="aFAoaw-wPE-7Tu0Nrlc6-33" value="CICD to UAT" style="rounded=1;whiteSpace=wrap;html=1;" parent="1" vertex="1">
                    <mxGeometry x="357.5" y="450" width="95" height="30" as="geometry"/>
                </mxCell>
                <mxCell id="aFAoaw-wPE-7Tu0Nrlc6-34" value="6" style="ellipse;whiteSpace=wrap;html=1;fillColor=#000000;fontColor=#FFFFFF;" parent="1" vertex="1">
                    <mxGeometry x="400" y="520" width="10" height="10" as="geometry"/>
                </mxCell>
                <mxCell id="aFAoaw-wPE-7Tu0Nrlc6-35" value="After .app tested in UAT Create Release increasing version" style="rounded=1;whiteSpace=wrap;html=1;strokeColor=none;" parent="1" vertex="1">
                    <mxGeometry x="425" y="500" width="330" height="30" as="geometry"/>
                </mxCell>
                <mxCell id="aFAoaw-wPE-7Tu0Nrlc6-36" value="" style="endArrow=classic;html=1;rounded=0;" parent="1" edge="1">
                    <mxGeometry width="50" height="50" relative="1" as="geometry">
                        <mxPoint x="410" y="530" as="sourcePoint"/>
                        <mxPoint x="800" y="530" as="targetPoint"/>
                    </mxGeometry>
                </mxCell>
                <mxCell id="aFAoaw-wPE-7Tu0Nrlc6-37" value="" style="edgeStyle=orthogonalEdgeStyle;rounded=0;orthogonalLoop=1;jettySize=auto;html=1;endArrow=none;endFill=0;dashed=1;" parent="1" source="aFAoaw-wPE-7Tu0Nrlc6-55" target="aFAoaw-wPE-7Tu0Nrlc6-39" edge="1">
                    <mxGeometry relative="1" as="geometry"/>
                </mxCell>
                <mxCell id="aFAoaw-wPE-7Tu0Nrlc6-38" value="Hotfix&lt;br&gt;Branches" style="image;aspect=fixed;html=1;points=[];align=center;fontSize=12;image=img/lib/azure2/general/Branch.svg;" parent="1" vertex="1">
                    <mxGeometry x="570" y="30" width="50" height="50" as="geometry"/>
                </mxCell>
                <mxCell id="aFAoaw-wPE-7Tu0Nrlc6-39" value="Hotfix&lt;br&gt;Branches" style="image;aspect=fixed;html=1;points=[];align=center;fontSize=12;image=img/lib/azure2/general/Branch.svg;" parent="1" vertex="1">
                    <mxGeometry x="570" y="830" width="50" height="50" as="geometry"/>
                </mxCell>
                <mxCell id="aFAoaw-wPE-7Tu0Nrlc6-41" value="" style="edgeStyle=orthogonalEdgeStyle;rounded=0;orthogonalLoop=1;jettySize=auto;html=1;endArrow=none;endFill=0;dashed=1;" parent="1" edge="1">
                    <mxGeometry relative="1" as="geometry">
                        <mxPoint x="805" y="120" as="sourcePoint"/>
                        <mxPoint x="805" y="520" as="targetPoint"/>
                    </mxGeometry>
                </mxCell>
                <mxCell id="aFAoaw-wPE-7Tu0Nrlc6-40" value="7" style="ellipse;whiteSpace=wrap;html=1;fillColor=#000000;fontColor=#FFFFFF;" parent="1" vertex="1">
                    <mxGeometry x="800" y="545" width="10" height="10" as="geometry"/>
                </mxCell>
                <mxCell id="aFAoaw-wPE-7Tu0Nrlc6-48" value="" style="edgeStyle=orthogonalEdgeStyle;rounded=0;orthogonalLoop=1;jettySize=auto;html=1;endArrow=none;endFill=0;dashed=1;" parent="1" edge="1">
                    <mxGeometry relative="1" as="geometry">
                        <mxPoint x="595" y="120" as="sourcePoint"/>
                        <mxPoint x="595" y="480" as="targetPoint"/>
                    </mxGeometry>
                </mxCell>
                <mxCell id="aFAoaw-wPE-7Tu0Nrlc6-50" value="" style="edgeStyle=orthogonalEdgeStyle;rounded=0;orthogonalLoop=1;jettySize=auto;html=1;endArrow=none;endFill=0;dashed=1;" parent="1" source="aFAoaw-wPE-7Tu0Nrlc6-40" edge="1">
                    <mxGeometry relative="1" as="geometry">
                        <mxPoint x="805" y="570" as="sourcePoint"/>
                        <mxPoint x="805" y="550" as="targetPoint"/>
                    </mxGeometry>
                </mxCell>
                <mxCell id="aFAoaw-wPE-7Tu0Nrlc6-54" value="" style="edgeStyle=orthogonalEdgeStyle;rounded=0;orthogonalLoop=1;jettySize=auto;html=1;endArrow=none;endFill=0;dashed=1;" parent="1" target="aFAoaw-wPE-7Tu0Nrlc6-53" edge="1">
                    <mxGeometry relative="1" as="geometry">
                        <mxPoint x="595" y="600" as="sourcePoint"/>
                        <mxPoint x="595" y="720" as="targetPoint"/>
                    </mxGeometry>
                </mxCell>
                <mxCell id="aFAoaw-wPE-7Tu0Nrlc6-53" value="8" style="ellipse;whiteSpace=wrap;html=1;fillColor=#000000;fontColor=#FFFFFF;" parent="1" vertex="1">
                    <mxGeometry x="590" y="610" width="10" height="10" as="geometry"/>
                </mxCell>
                <mxCell id="aFAoaw-wPE-7Tu0Nrlc6-56" value="" style="endArrow=classic;html=1;rounded=0;exitX=0;exitY=1;exitDx=0;exitDy=0;" parent="1" source="aFAoaw-wPE-7Tu0Nrlc6-53" edge="1">
                    <mxGeometry width="50" height="50" relative="1" as="geometry">
                        <mxPoint x="530" y="620" as="sourcePoint"/>
                        <mxPoint x="410" y="620" as="targetPoint"/>
                    </mxGeometry>
                </mxCell>
                <mxCell id="aFAoaw-wPE-7Tu0Nrlc6-57" value="" style="edgeStyle=orthogonalEdgeStyle;rounded=0;orthogonalLoop=1;jettySize=auto;html=1;endArrow=none;endFill=0;dashed=1;" parent="1" source="aFAoaw-wPE-7Tu0Nrlc6-53" target="aFAoaw-wPE-7Tu0Nrlc6-55" edge="1">
                    <mxGeometry relative="1" as="geometry">
                        <mxPoint x="595" y="620" as="sourcePoint"/>
                        <mxPoint x="595" y="720" as="targetPoint"/>
                    </mxGeometry>
                </mxCell>
                <mxCell id="aFAoaw-wPE-7Tu0Nrlc6-55" value="Bug fixed. Create PR to merge to main" style="rounded=1;whiteSpace=wrap;html=1;strokeColor=none;" parent="1" vertex="1">
                    <mxGeometry x="510" y="620" width="170" height="60" as="geometry"/>
                </mxCell>
                <mxCell id="aFAoaw-wPE-7Tu0Nrlc6-61" value="" style="edgeStyle=orthogonalEdgeStyle;rounded=0;orthogonalLoop=1;jettySize=auto;html=1;endArrow=none;endFill=0;dashed=1;" parent="1" target="aFAoaw-wPE-7Tu0Nrlc6-60" edge="1">
                    <mxGeometry relative="1" as="geometry">
                        <mxPoint x="405" y="490" as="sourcePoint"/>
                        <mxPoint x="405" y="830" as="targetPoint"/>
                        <Array as="points">
                            <mxPoint x="405" y="590"/>
                            <mxPoint x="405" y="590"/>
                        </Array>
                    </mxGeometry>
                </mxCell>
                <mxCell id="aFAoaw-wPE-7Tu0Nrlc6-60" value="9" style="ellipse;whiteSpace=wrap;html=1;fillColor=#000000;fontColor=#FFFFFF;" parent="1" vertex="1">
                    <mxGeometry x="395" y="690" width="20" height="10" as="geometry"/>
                </mxCell>
                <mxCell id="aFAoaw-wPE-7Tu0Nrlc6-62" value="After .app tested in UAT Create Release increasing version" style="rounded=1;whiteSpace=wrap;html=1;strokeColor=none;" parent="1" vertex="1">
                    <mxGeometry x="410" y="700" width="330" height="30" as="geometry"/>
                </mxCell>
                <mxCell id="aFAoaw-wPE-7Tu0Nrlc6-63" value="" style="endArrow=classic;html=1;rounded=0;" parent="1" edge="1">
                    <mxGeometry width="50" height="50" relative="1" as="geometry">
                        <mxPoint x="415" y="700" as="sourcePoint"/>
                        <mxPoint x="800" y="700" as="targetPoint"/>
                    </mxGeometry>
                </mxCell>
                <mxCell id="aFAoaw-wPE-7Tu0Nrlc6-43" value="Bug discovered. Create hotfix branch from that release" style="rounded=0;whiteSpace=wrap;html=1;strokeColor=none;fillColor=none;" parent="1" vertex="1">
                    <mxGeometry x="620" y="530" width="170" height="60" as="geometry"/>
                </mxCell>
                <mxCell id="aFAoaw-wPE-7Tu0Nrlc6-66" value="" style="endArrow=classic;html=1;rounded=0;" parent="1" edge="1">
                    <mxGeometry width="50" height="50" relative="1" as="geometry">
                        <mxPoint x="790" y="580" as="sourcePoint"/>
                        <mxPoint x="630" y="580" as="targetPoint"/>
                        <Array as="points">
                            <mxPoint x="790" y="580"/>
                        </Array>
                    </mxGeometry>
                </mxCell>
                <mxCell id="aFAoaw-wPE-7Tu0Nrlc6-67" value="Commit(s)" style="outlineConnect=0;dashed=0;verticalLabelPosition=bottom;verticalAlign=top;align=center;html=1;shape=mxgraph.aws3.codecommit;fillColor=#759C3E;gradientColor=none;" parent="1" vertex="1">
                    <mxGeometry x="790" y="580" width="30" height="30" as="geometry"/>
                </mxCell>
                <mxCell id="aFAoaw-wPE-7Tu0Nrlc6-68" value="Commit(s)" style="outlineConnect=0;dashed=0;verticalLabelPosition=bottom;verticalAlign=top;align=center;html=1;shape=mxgraph.aws3.codecommit;fillColor=#759C3E;gradientColor=none;" parent="1" vertex="1">
                    <mxGeometry x="580" y="540" width="30" height="30" as="geometry"/>
                </mxCell>
                <mxCell id="aFAoaw-wPE-7Tu0Nrlc6-70" value="Commit(s)" style="outlineConnect=0;dashed=0;verticalLabelPosition=bottom;verticalAlign=top;align=center;html=1;shape=mxgraph.aws3.codecommit;fillColor=#759C3E;gradientColor=none;" parent="1" vertex="1">
                    <mxGeometry x="180" y="240" width="30" height="30" as="geometry"/>
                </mxCell>
            </root>
        </mxGraphModel>
    </diagram>
    <diagram id="hFQf2XLbM1gLRriNiGXj" name="Page-2">
        <mxGraphModel dx="1040" dy="784" grid="1" gridSize="10" guides="1" tooltips="1" connect="1" arrows="1" fold="1" page="1" pageScale="1" pageWidth="850" pageHeight="1100" math="0" shadow="0">
            <root>
                <mxCell id="0"/>
                <mxCell id="1" parent="0"/>
                <UserObject label="" mermaidData="{&#10;  &quot;data&quot;: &quot;sequenceDiagram\n    autonumber\n    participant F as FeatureBranches\n    participant M as MainBranch\n    participant H as HotfixBranches\n    participant R as ReleaseBranches\n\n    M-&gt;&gt;F: feature/1234-TaskDescription where 1234 is DevOps WorkItem nr\n\n    loop\n        H-&gt;&gt;H: Fight against hypochondria\n    end\n\n    Note over R: Rational thoughts!\n\n    R--&gt;&gt;H: Great!\n    R-&gt;&gt;H: How about you?\n&quot;,&#10;  &quot;config&quot;: {&#10;    &quot;theme&quot;: &quot;dark&quot;,&#10;    &quot;arrowMarkerAbsolute&quot;: false,&#10;    &quot;flowchart&quot;: {&#10;      &quot;htmlLabels&quot;: false&#10;    },&#10;    &quot;sequence&quot;: {&#10;      &quot;diagramMarginX&quot;: 50,&#10;      &quot;diagramMarginY&quot;: 10,&#10;      &quot;actorMargin&quot;: 50,&#10;      &quot;width&quot;: 150,&#10;      &quot;height&quot;: 65,&#10;      &quot;boxMargin&quot;: 10,&#10;      &quot;boxTextMargin&quot;: 5,&#10;      &quot;noteMargin&quot;: 10,&#10;      &quot;messageMargin&quot;: 35,&#10;      &quot;mirrorActors&quot;: true,&#10;      &quot;bottomMarginAdj&quot;: 1,&#10;      &quot;useMaxWidth&quot;: true,&#10;      &quot;rightAngles&quot;: false,&#10;      &quot;showSequenceNumbers&quot;: false&#10;    },&#10;    &quot;gantt&quot;: {&#10;      &quot;titleTopMargin&quot;: 25,&#10;      &quot;barHeight&quot;: 20,&#10;      &quot;barGap&quot;: 4,&#10;      &quot;topPadding&quot;: 50,&#10;      &quot;leftPadding&quot;: 75,&#10;      &quot;gridLineStartPadding&quot;: 35,&#10;      &quot;fontSize&quot;: 11,&#10;      &quot;fontFamily&quot;: &quot;\&quot;Open-Sans\&quot;, \&quot;sans-serif\&quot;&quot;,&#10;      &quot;numberSectionStyles&quot;: 4,&#10;      &quot;axisFormat&quot;: &quot;%Y-%m-%d&quot;&#10;    },&#10;    &quot;securityLevel&quot;: &quot;strict&quot;,&#10;    &quot;startOnLoad&quot;: false,&#10;    &quot;themeVariables&quot;: {&#10;      &quot;background&quot;: &quot;#333&quot;,&#10;      &quot;primaryColor&quot;: &quot;#1f2020&quot;,&#10;      &quot;secondaryColor&quot;: &quot;hsl(180, 1.5873015873%, 28.3529411765%)&quot;,&#10;      &quot;tertiaryColor&quot;: &quot;hsl(20, 1.5873015873%, 12.3529411765%)&quot;,&#10;      &quot;primaryBorderColor&quot;: &quot;#cccccc&quot;,&#10;      &quot;secondaryBorderColor&quot;: &quot;hsl(180, 0%, 18.3529411765%)&quot;,&#10;      &quot;tertiaryBorderColor&quot;: &quot;hsl(20, 0%, 2.3529411765%)&quot;,&#10;      &quot;primaryTextColor&quot;: &quot;#e0dfdf&quot;,&#10;      &quot;secondaryTextColor&quot;: &quot;rgb(183.8476190475, 181.5523809523, 181.5523809523)&quot;,&#10;      &quot;tertiaryTextColor&quot;: &quot;rgb(222.9999999999, 223.6666666666, 223.9999999999)&quot;,&#10;      &quot;lineColor&quot;: &quot;lightgrey&quot;,&#10;      &quot;textColor&quot;: &quot;#ccc&quot;,&#10;      &quot;mainBkg&quot;: &quot;#1f2020&quot;,&#10;      &quot;secondBkg&quot;: &quot;hsl(180, 1.5873015873%, 28.3529411765%)&quot;,&#10;      &quot;mainContrastColor&quot;: &quot;lightgrey&quot;,&#10;      &quot;darkTextColor&quot;: &quot;hsl(28.5714285714, 17.3553719008%, 86.2745098039%)&quot;,&#10;      &quot;border1&quot;: &quot;#81B1DB&quot;,&#10;      &quot;border2&quot;: &quot;rgba(255, 255, 255, 0.25)&quot;,&#10;      &quot;arrowheadColor&quot;: &quot;lightgrey&quot;,&#10;      &quot;fontFamily&quot;: &quot;\&quot;trebuchet ms\&quot;, verdana, arial, sans-serif&quot;,&#10;      &quot;fontSize&quot;: &quot;16px&quot;,&#10;      &quot;labelBackground&quot;: &quot;#181818&quot;,&#10;      &quot;nodeBkg&quot;: &quot;#1f2020&quot;,&#10;      &quot;nodeBorder&quot;: &quot;#81B1DB&quot;,&#10;      &quot;clusterBkg&quot;: &quot;hsl(180, 1.5873015873%, 28.3529411765%)&quot;,&#10;      &quot;clusterBorder&quot;: &quot;rgba(255, 255, 255, 0.25)&quot;,&#10;      &quot;defaultLinkColor&quot;: &quot;lightgrey&quot;,&#10;      &quot;titleColor&quot;: &quot;#F9FFFE&quot;,&#10;      &quot;edgeLabelBackground&quot;: &quot;hsl(0, 0%, 34.4117647059%)&quot;,&#10;      &quot;actorBorder&quot;: &quot;#81B1DB&quot;,&#10;      &quot;actorBkg&quot;: &quot;#1f2020&quot;,&#10;      &quot;actorTextColor&quot;: &quot;lightgrey&quot;,&#10;      &quot;actorLineColor&quot;: &quot;lightgrey&quot;,&#10;      &quot;signalColor&quot;: &quot;lightgrey&quot;,&#10;      &quot;signalTextColor&quot;: &quot;lightgrey&quot;,&#10;      &quot;labelBoxBkgColor&quot;: &quot;#1f2020&quot;,&#10;      &quot;labelBoxBorderColor&quot;: &quot;#81B1DB&quot;,&#10;      &quot;labelTextColor&quot;: &quot;lightgrey&quot;,&#10;      &quot;loopTextColor&quot;: &quot;lightgrey&quot;,&#10;      &quot;noteBorderColor&quot;: &quot;hsl(180, 0%, 18.3529411765%)&quot;,&#10;      &quot;noteBkgColor&quot;: &quot;hsl(180, 1.5873015873%, 28.3529411765%)&quot;,&#10;      &quot;noteTextColor&quot;: &quot;rgb(183.8476190475, 181.5523809523, 181.5523809523)&quot;,&#10;      &quot;activationBorderColor&quot;: &quot;#81B1DB&quot;,&#10;      &quot;activationBkgColor&quot;: &quot;hsl(180, 1.5873015873%, 28.3529411765%)&quot;,&#10;      &quot;sequenceNumberColor&quot;: &quot;black&quot;,&#10;      &quot;sectionBkgColor&quot;: &quot;hsl(52.9411764706, 28.813559322%, 58.431372549%)&quot;,&#10;      &quot;altSectionBkgColor&quot;: &quot;#333&quot;,&#10;      &quot;sectionBkgColor2&quot;: &quot;#EAE8D9&quot;,&#10;      &quot;taskBorderColor&quot;: &quot;#ffffff&quot;,&#10;      &quot;taskBkgColor&quot;: &quot;hsl(180, 1.5873015873%, 35.3529411765%)&quot;,&#10;      &quot;taskTextColor&quot;: &quot;hsl(28.5714285714, 17.3553719008%, 86.2745098039%)&quot;,&#10;      &quot;taskTextLightColor&quot;: &quot;lightgrey&quot;,&#10;      &quot;taskTextOutsideColor&quot;: &quot;lightgrey&quot;,&#10;      &quot;taskTextClickableColor&quot;: &quot;#003163&quot;,&#10;      &quot;activeTaskBorderColor&quot;: &quot;#ffffff&quot;,&#10;      &quot;activeTaskBkgColor&quot;: &quot;#81B1DB&quot;,&#10;      &quot;gridColor&quot;: &quot;lightgrey&quot;,&#10;      &quot;doneTaskBkgColor&quot;: &quot;lightgrey&quot;,&#10;      &quot;doneTaskBorderColor&quot;: &quot;grey&quot;,&#10;      &quot;critBorderColor&quot;: &quot;#E83737&quot;,&#10;      &quot;critBkgColor&quot;: &quot;#E83737&quot;,&#10;      &quot;taskTextDarkColor&quot;: &quot;hsl(28.5714285714, 17.3553719008%, 86.2745098039%)&quot;,&#10;      &quot;todayLineColor&quot;: &quot;#DB5757&quot;,&#10;      &quot;personBorder&quot;: &quot;calculated&quot;,&#10;      &quot;personBkg&quot;: &quot;calculated&quot;,&#10;      &quot;labelColor&quot;: &quot;calculated&quot;,&#10;      &quot;errorBkgColor&quot;: &quot;#a44141&quot;,&#10;      &quot;errorTextColor&quot;: &quot;#ddd&quot;,&#10;      &quot;transitionColor&quot;: &quot;lightgrey&quot;,&#10;      &quot;transitionLabelColor&quot;: &quot;#ccc&quot;,&#10;      &quot;stateLabelColor&quot;: &quot;#e0dfdf&quot;,&#10;      &quot;stateBkg&quot;: &quot;#1f2020&quot;,&#10;      &quot;labelBackgroundColor&quot;: &quot;#1f2020&quot;,&#10;      &quot;compositeBackground&quot;: &quot;#333&quot;,&#10;      &quot;altBackground&quot;: &quot;#555&quot;,&#10;      &quot;compositeTitleBackground&quot;: &quot;#1f2020&quot;,&#10;      &quot;compositeBorder&quot;: &quot;#81B1DB&quot;,&#10;      &quot;innerEndBackground&quot;: &quot;#cccccc&quot;,&#10;      &quot;specialStateColor&quot;: &quot;#f4f4f4&quot;,&#10;      &quot;fillType0&quot;: &quot;#1f2020&quot;,&#10;      &quot;fillType1&quot;: &quot;hsl(180, 1.5873015873%, 28.3529411765%)&quot;,&#10;      &quot;fillType2&quot;: &quot;hsl(244, 1.5873015873%, 12.3529411765%)&quot;,&#10;      &quot;fillType3&quot;: &quot;hsl(244, 1.5873015873%, 28.3529411765%)&quot;,&#10;      &quot;fillType4&quot;: &quot;hsl(116, 1.5873015873%, 12.3529411765%)&quot;,&#10;      &quot;fillType5&quot;: &quot;hsl(116, 1.5873015873%, 28.3529411765%)&quot;,&#10;      &quot;fillType6&quot;: &quot;hsl(308, 1.5873015873%, 12.3529411765%)&quot;,&#10;      &quot;fillType7&quot;: &quot;hsl(308, 1.5873015873%, 28.3529411765%)&quot;,&#10;      &quot;pie1&quot;: &quot;#0b0000&quot;,&#10;      &quot;pie2&quot;: &quot;#4d1037&quot;,&#10;      &quot;pie3&quot;: &quot;#3f5258&quot;,&#10;      &quot;pie4&quot;: &quot;#4f2f1b&quot;,&#10;      &quot;pie5&quot;: &quot;#6e0a0a&quot;,&#10;      &quot;pie6&quot;: &quot;#3b0048&quot;,&#10;      &quot;pie7&quot;: &quot;#995a01&quot;,&#10;      &quot;pie8&quot;: &quot;#154706&quot;,&#10;      &quot;pie9&quot;: &quot;#161722&quot;,&#10;      &quot;pie10&quot;: &quot;#00296f&quot;,&#10;      &quot;pie11&quot;: &quot;#01629c&quot;,&#10;      &quot;pie12&quot;: &quot;#010029&quot;,&#10;      &quot;pieTitleTextSize&quot;: &quot;25px&quot;,&#10;      &quot;pieTitleTextColor&quot;: &quot;hsl(28.5714285714, 17.3553719008%, 86.2745098039%)&quot;,&#10;      &quot;pieSectionTextSize&quot;: &quot;17px&quot;,&#10;      &quot;pieSectionTextColor&quot;: &quot;#ccc&quot;,&#10;      &quot;pieLegendTextSize&quot;: &quot;17px&quot;,&#10;      &quot;pieLegendTextColor&quot;: &quot;hsl(28.5714285714, 17.3553719008%, 86.2745098039%)&quot;,&#10;      &quot;pieStrokeColor&quot;: &quot;black&quot;,&#10;      &quot;pieStrokeWidth&quot;: &quot;2px&quot;,&#10;      &quot;pieOpacity&quot;: &quot;0.7&quot;,&#10;      &quot;classText&quot;: &quot;#e0dfdf&quot;,&#10;      &quot;requirementBackground&quot;: &quot;#1f2020&quot;,&#10;      &quot;requirementBorderColor&quot;: &quot;#cccccc&quot;,&#10;      &quot;requirementBorderSize&quot;: &quot;#cccccc&quot;,&#10;      &quot;requirementTextColor&quot;: &quot;#e0dfdf&quot;,&#10;      &quot;relationColor&quot;: &quot;lightgrey&quot;,&#10;      &quot;relationLabelBackground&quot;: &quot;hsl(180, 1.5873015873%, 28.3529411765%)&quot;,&#10;      &quot;relationLabelColor&quot;: &quot;lightgrey&quot;,&#10;      &quot;git0&quot;: &quot;hsl(180, 1.5873015873%, 48.3529411765%)&quot;,&#10;      &quot;git1&quot;: &quot;hsl(321.6393442623, 65.5913978495%, 38.2352941176%)&quot;,&#10;      &quot;git2&quot;: &quot;hsl(194.4, 16.5562913907%, 49.6078431373%)&quot;,&#10;      &quot;git3&quot;: &quot;hsl(23.0769230769, 49.0566037736%, 40.7843137255%)&quot;,&#10;      &quot;git4&quot;: &quot;hsl(0, 83.3333333333%, 43.5294117647%)&quot;,&#10;      &quot;git5&quot;: &quot;hsl(289.1666666667, 100%, 24.1176470588%)&quot;,&#10;      &quot;git6&quot;: &quot;hsl(35.1315789474, 98.7012987013%, 40.1960784314%)&quot;,&#10;      &quot;git7&quot;: &quot;hsl(106.1538461538, 84.4155844156%, 35.0980392157%)&quot;,&#10;      &quot;gitInv0&quot;: &quot;rgb(133.6571428571, 129.7428571428, 129.7428571428)&quot;,&#10;      &quot;gitInv1&quot;: &quot;rgb(93.5483870969, 221.4516129033, 139.677419355)&quot;,&#10;      &quot;gitInv2&quot;: &quot;rgb(149.4437086091, 117.6092715231, 107.5562913906)&quot;,&#10;      &quot;gitInv3&quot;: &quot;rgb(99.9811320754, 162.7735849057, 202.0188679245)&quot;,&#10;      &quot;gitInv4&quot;: &quot;rgb(51.5000000001, 236.5, 236.5)&quot;,&#10;      &quot;gitInv5&quot;: &quot;rgb(154.2083333334, 255, 132.0000000001)&quot;,&#10;      &quot;gitInv6&quot;: &quot;rgb(51.331168831, 135.1948051946, 253.6688311688)&quot;,&#10;      &quot;gitInv7&quot;: &quot;rgb(206.1818181817, 89.948051948, 241.051948052)&quot;,&#10;      &quot;tagLabelColor&quot;: &quot;#e0dfdf&quot;,&#10;      &quot;tagLabelBackground&quot;: &quot;#1f2020&quot;,&#10;      &quot;tagLabelBorder&quot;: &quot;#cccccc&quot;,&#10;      &quot;tagLabelFontSize&quot;: &quot;10px&quot;,&#10;      &quot;commitLabelColor&quot;: &quot;rgb(183.8476190475, 181.5523809523, 181.5523809523)&quot;,&#10;      &quot;commitLabelBackground&quot;: &quot;hsl(180, 1.5873015873%, 28.3529411765%)&quot;,&#10;      &quot;commitLabelFontSize&quot;: &quot;10px&quot;&#10;    }&#10;  }&#10;}" id="yROr6Lj4DC9vZcpPbaKV-1">
                    <mxCell style="shape=image;noLabel=1;verticalAlign=top;imageAspect=1;image=data:image/svg+xml,PHN2ZyBhcmlhLWxhYmVsbGVkYnk9ImNoYXJ0LXRpdGxlLWdlTWVybWFpZE91dHB1dC0xNzAwMDA4NjE3NjAyIGNoYXJ0LWRlc2MtZ2VNZXJtYWlkT3V0cHV0LTE3MDAwMDg2MTc2MDIiIHJvbGU9ImltZyIgdmlld0JveD0iLTUwIC0xMCAxMTg0IDUzMCIgc3R5bGU9Im1heC13aWR0aDogMTE4NHB4OyIgaGVpZ2h0PSI1MzAiIHhtbG5zPSJodHRwOi8vd3d3LnczLm9yZy8yMDAwL3N2ZyIgd2lkdGg9IjEwMCUiIGlkPSJnZU1lcm1haWRPdXRwdXQtMTcwMDAwODYxNzYwMiI+PHRpdGxlIGlkPSJjaGFydC10aXRsZS1nZU1lcm1haWRPdXRwdXQtMTcwMDAwODYxNzYwMiI+PC90aXRsZT48ZGVzYyBpZD0iY2hhcnQtZGVzYy1nZU1lcm1haWRPdXRwdXQtMTcwMDAwODYxNzYwMiI+PC9kZXNjPjxzdHlsZT4jZ2VNZXJtYWlkT3V0cHV0LTE3MDAwMDg2MTc2MDIge2ZvbnQtZmFtaWx5OiJ0cmVidWNoZXQgbXMiLHZlcmRhbmEsYXJpYWwsc2Fucy1zZXJpZjtmb250LXNpemU6MTZweDtmaWxsOiNjY2M7fSNnZU1lcm1haWRPdXRwdXQtMTcwMDAwODYxNzYwMiAuZXJyb3ItaWNvbntmaWxsOiNhNDQxNDE7fSNnZU1lcm1haWRPdXRwdXQtMTcwMDAwODYxNzYwMiAuZXJyb3ItdGV4dHtmaWxsOiNkZGQ7c3Ryb2tlOiNkZGQ7fSNnZU1lcm1haWRPdXRwdXQtMTcwMDAwODYxNzYwMiAuZWRnZS10aGlja25lc3Mtbm9ybWFse3N0cm9rZS13aWR0aDoycHg7fSNnZU1lcm1haWRPdXRwdXQtMTcwMDAwODYxNzYwMiAuZWRnZS10aGlja25lc3MtdGhpY2t7c3Ryb2tlLXdpZHRoOjMuNXB4O30jZ2VNZXJtYWlkT3V0cHV0LTE3MDAwMDg2MTc2MDIgLmVkZ2UtcGF0dGVybi1zb2xpZHtzdHJva2UtZGFzaGFycmF5OjA7fSNnZU1lcm1haWRPdXRwdXQtMTcwMDAwODYxNzYwMiAuZWRnZS1wYXR0ZXJuLWRhc2hlZHtzdHJva2UtZGFzaGFycmF5OjM7fSNnZU1lcm1haWRPdXRwdXQtMTcwMDAwODYxNzYwMiAuZWRnZS1wYXR0ZXJuLWRvdHRlZHtzdHJva2UtZGFzaGFycmF5OjI7fSNnZU1lcm1haWRPdXRwdXQtMTcwMDAwODYxNzYwMiAubWFya2Vye2ZpbGw6bGlnaHRncmV5O3N0cm9rZTpsaWdodGdyZXk7fSNnZU1lcm1haWRPdXRwdXQtMTcwMDAwODYxNzYwMiAubWFya2VyLmNyb3Nze3N0cm9rZTpsaWdodGdyZXk7fSNnZU1lcm1haWRPdXRwdXQtMTcwMDAwODYxNzYwMiBzdmd7Zm9udC1mYW1pbHk6InRyZWJ1Y2hldCBtcyIsdmVyZGFuYSxhcmlhbCxzYW5zLXNlcmlmO2ZvbnQtc2l6ZToxNnB4O30jZ2VNZXJtYWlkT3V0cHV0LTE3MDAwMDg2MTc2MDIgLmFjdG9ye3N0cm9rZTojODFCMURCO2ZpbGw6IzFmMjAyMDt9I2dlTWVybWFpZE91dHB1dC0xNzAwMDA4NjE3NjAyIHRleHQuYWN0b3ImZ3Q7dHNwYW57ZmlsbDpsaWdodGdyZXk7c3Ryb2tlOm5vbmU7fSNnZU1lcm1haWRPdXRwdXQtMTcwMDAwODYxNzYwMiAuYWN0b3ItbGluZXtzdHJva2U6bGlnaHRncmV5O30jZ2VNZXJtYWlkT3V0cHV0LTE3MDAwMDg2MTc2MDIgLm1lc3NhZ2VMaW5lMHtzdHJva2Utd2lkdGg6MS41O3N0cm9rZS1kYXNoYXJyYXk6bm9uZTtzdHJva2U6bGlnaHRncmV5O30jZ2VNZXJtYWlkT3V0cHV0LTE3MDAwMDg2MTc2MDIgLm1lc3NhZ2VMaW5lMXtzdHJva2Utd2lkdGg6MS41O3N0cm9rZS1kYXNoYXJyYXk6MiwyO3N0cm9rZTpsaWdodGdyZXk7fSNnZU1lcm1haWRPdXRwdXQtMTcwMDAwODYxNzYwMiAjYXJyb3doZWFkIHBhdGh7ZmlsbDpsaWdodGdyZXk7c3Ryb2tlOmxpZ2h0Z3JleTt9I2dlTWVybWFpZE91dHB1dC0xNzAwMDA4NjE3NjAyIC5zZXF1ZW5jZU51bWJlcntmaWxsOmJsYWNrO30jZ2VNZXJtYWlkT3V0cHV0LTE3MDAwMDg2MTc2MDIgI3NlcXVlbmNlbnVtYmVye2ZpbGw6bGlnaHRncmV5O30jZ2VNZXJtYWlkT3V0cHV0LTE3MDAwMDg2MTc2MDIgI2Nyb3NzaGVhZCBwYXRoe2ZpbGw6bGlnaHRncmV5O3N0cm9rZTpsaWdodGdyZXk7fSNnZU1lcm1haWRPdXRwdXQtMTcwMDAwODYxNzYwMiAubWVzc2FnZVRleHR7ZmlsbDpsaWdodGdyZXk7c3Ryb2tlOmxpZ2h0Z3JleTt9I2dlTWVybWFpZE91dHB1dC0xNzAwMDA4NjE3NjAyIC5sYWJlbEJveHtzdHJva2U6IzgxQjFEQjtmaWxsOiMxZjIwMjA7fSNnZU1lcm1haWRPdXRwdXQtMTcwMDAwODYxNzYwMiAubGFiZWxUZXh0LCNnZU1lcm1haWRPdXRwdXQtMTcwMDAwODYxNzYwMiAubGFiZWxUZXh0Jmd0O3RzcGFue2ZpbGw6bGlnaHRncmV5O3N0cm9rZTpub25lO30jZ2VNZXJtYWlkT3V0cHV0LTE3MDAwMDg2MTc2MDIgLmxvb3BUZXh0LCNnZU1lcm1haWRPdXRwdXQtMTcwMDAwODYxNzYwMiAubG9vcFRleHQmZ3Q7dHNwYW57ZmlsbDpsaWdodGdyZXk7c3Ryb2tlOm5vbmU7fSNnZU1lcm1haWRPdXRwdXQtMTcwMDAwODYxNzYwMiAubG9vcExpbmV7c3Ryb2tlLXdpZHRoOjJweDtzdHJva2UtZGFzaGFycmF5OjIsMjtzdHJva2U6IzgxQjFEQjtmaWxsOiM4MUIxREI7fSNnZU1lcm1haWRPdXRwdXQtMTcwMDAwODYxNzYwMiAubm90ZXtzdHJva2U6aHNsKDE4MCwgMCUsIDE4LjM1Mjk0MTE3NjUlKTtmaWxsOmhzbCgxODAsIDEuNTg3MzAxNTg3MyUsIDI4LjM1Mjk0MTE3NjUlKTt9I2dlTWVybWFpZE91dHB1dC0xNzAwMDA4NjE3NjAyIC5ub3RlVGV4dCwjZ2VNZXJtYWlkT3V0cHV0LTE3MDAwMDg2MTc2MDIgLm5vdGVUZXh0Jmd0O3RzcGFue2ZpbGw6cmdiKDE4My44NDc2MTkwNDc1LCAxODEuNTUyMzgwOTUyMywgMTgxLjU1MjM4MDk1MjMpO3N0cm9rZTpub25lO30jZ2VNZXJtYWlkT3V0cHV0LTE3MDAwMDg2MTc2MDIgLmFjdGl2YXRpb24we2ZpbGw6aHNsKDE4MCwgMS41ODczMDE1ODczJSwgMjguMzUyOTQxMTc2NSUpO3N0cm9rZTojODFCMURCO30jZ2VNZXJtYWlkT3V0cHV0LTE3MDAwMDg2MTc2MDIgLmFjdGl2YXRpb24xe2ZpbGw6aHNsKDE4MCwgMS41ODczMDE1ODczJSwgMjguMzUyOTQxMTc2NSUpO3N0cm9rZTojODFCMURCO30jZ2VNZXJtYWlkT3V0cHV0LTE3MDAwMDg2MTc2MDIgLmFjdGl2YXRpb24ye2ZpbGw6aHNsKDE4MCwgMS41ODczMDE1ODczJSwgMjguMzUyOTQxMTc2NSUpO3N0cm9rZTojODFCMURCO30jZ2VNZXJtYWlkT3V0cHV0LTE3MDAwMDg2MTc2MDIgLmFjdG9yUG9wdXBNZW51e3Bvc2l0aW9uOmFic29sdXRlO30jZ2VNZXJtYWlkT3V0cHV0LTE3MDAwMDg2MTc2MDIgLmFjdG9yUG9wdXBNZW51UGFuZWx7cG9zaXRpb246YWJzb2x1dGU7ZmlsbDojMWYyMDIwO2JveC1zaGFkb3c6MHB4IDhweCAxNnB4IDBweCByZ2JhKDAsMCwwLDAuMik7ZmlsdGVyOmRyb3Atc2hhZG93KDNweCA1cHggMnB4IHJnYigwIDAgMCAvIDAuNCkpO30jZ2VNZXJtYWlkT3V0cHV0LTE3MDAwMDg2MTc2MDIgLmFjdG9yLW1hbiBsaW5le3N0cm9rZTojODFCMURCO2ZpbGw6IzFmMjAyMDt9I2dlTWVybWFpZE91dHB1dC0xNzAwMDA4NjE3NjAyIC5hY3Rvci1tYW4gY2lyY2xlLCNnZU1lcm1haWRPdXRwdXQtMTcwMDAwODYxNzYwMiBsaW5le3N0cm9rZTojODFCMURCO2ZpbGw6IzFmMjAyMDtzdHJva2Utd2lkdGg6MnB4O30jZ2VNZXJtYWlkT3V0cHV0LTE3MDAwMDg2MTc2MDIgOnJvb3R7LS1tZXJtYWlkLWZvbnQtZmFtaWx5OiJ0cmVidWNoZXQgbXMiLHZlcmRhbmEsYXJpYWwsc2Fucy1zZXJpZjt9PC9zdHlsZT48Zz48L2c+PGRlZnM+PHN5bWJvbCBoZWlnaHQ9IjI0IiB3aWR0aD0iMjQiIGlkPSJjb21wdXRlciI+PHBhdGggZD0iTTIgMnYxM2gyMHYtMTNoLTIwem0xOCAxMWgtMTZ2LTloMTZ2OXptLTEwLjIyOCA2bC40NjYtMWgzLjUyNGwuNDY3IDFoLTQuNDU3em0xNC4yMjggM2gtMjRsMi02aDIuMTA0bC0xLjMzIDRoMTguNDVsLTEuMjk3LTRoMi4wNzNsMiA2em0tNS0xMGgtMTR2LTdoMTR2N3oiIHRyYW5zZm9ybT0ic2NhbGUoLjUpIj48L3BhdGg+PC9zeW1ib2w+PC9kZWZzPjxkZWZzPjxzeW1ib2wgY2xpcC1ydWxlPSJldmVub2RkIiBmaWxsLXJ1bGU9ImV2ZW5vZGQiIGlkPSJkYXRhYmFzZSI+PHBhdGggZD0iTTEyLjI1OC4wMDFsLjI1Ni4wMDQuMjU1LjAwNS4yNTMuMDA4LjI1MS4wMS4yNDkuMDEyLjI0Ny4wMTUuMjQ2LjAxNi4yNDIuMDE5LjI0MS4wMi4yMzkuMDIzLjIzNi4wMjQuMjMzLjAyNy4yMzEuMDI4LjIyOS4wMzEuMjI1LjAzMi4yMjMuMDM0LjIyLjAzNi4yMTcuMDM4LjIxNC4wNC4yMTEuMDQxLjIwOC4wNDMuMjA1LjA0NS4yMDEuMDQ2LjE5OC4wNDguMTk0LjA1LjE5MS4wNTEuMTg3LjA1My4xODMuMDU0LjE4LjA1Ni4xNzUuMDU3LjE3Mi4wNTkuMTY4LjA2LjE2My4wNjEuMTYuMDYzLjE1NS4wNjQuMTUuMDY2LjA3NC4wMzMuMDczLjAzMy4wNzEuMDM0LjA3LjAzNC4wNjkuMDM1LjA2OC4wMzUuMDY3LjAzNS4wNjYuMDM1LjA2NC4wMzYuMDY0LjAzNi4wNjIuMDM2LjA2LjAzNi4wNi4wMzcuMDU4LjAzNy4wNTguMDM3LjA1NS4wMzguMDU1LjAzOC4wNTMuMDM4LjA1Mi4wMzguMDUxLjAzOS4wNS4wMzkuMDQ4LjAzOS4wNDcuMDM5LjA0NS4wNC4wNDQuMDQuMDQzLjA0LjA0MS4wNC4wNC4wNDEuMDM5LjA0MS4wMzcuMDQxLjAzNi4wNDEuMDM0LjA0MS4wMzMuMDQyLjAzMi4wNDIuMDMuMDQyLjAyOS4wNDIuMDI3LjA0Mi4wMjYuMDQzLjAyNC4wNDMuMDIzLjA0My4wMjEuMDQzLjAyLjA0My4wMTguMDQ0LjAxNy4wNDMuMDE1LjA0NC4wMTMuMDQ0LjAxMi4wNDQuMDExLjA0NS4wMDkuMDQ0LjAwNy4wNDUuMDA2LjA0NS4wMDQuMDQ1LjAwMi4wNDUuMDAxLjA0NXYxN2wtLjAwMS4wNDUtLjAwMi4wNDUtLjAwNC4wNDUtLjAwNi4wNDUtLjAwNy4wNDUtLjAwOS4wNDQtLjAxMS4wNDUtLjAxMi4wNDQtLjAxMy4wNDQtLjAxNS4wNDQtLjAxNy4wNDMtLjAxOC4wNDQtLjAyLjA0My0uMDIxLjA0My0uMDIzLjA0My0uMDI0LjA0My0uMDI2LjA0My0uMDI3LjA0Mi0uMDI5LjA0Mi0uMDMuMDQyLS4wMzIuMDQyLS4wMzMuMDQyLS4wMzQuMDQxLS4wMzYuMDQxLS4wMzcuMDQxLS4wMzkuMDQxLS4wNC4wNDEtLjA0MS4wNC0uMDQzLjA0LS4wNDQuMDQtLjA0NS4wNC0uMDQ3LjAzOS0uMDQ4LjAzOS0uMDUuMDM5LS4wNTEuMDM5LS4wNTIuMDM4LS4wNTMuMDM4LS4wNTUuMDM4LS4wNTUuMDM4LS4wNTguMDM3LS4wNTguMDM3LS4wNi4wMzctLjA2LjAzNi0uMDYyLjAzNi0uMDY0LjAzNi0uMDY0LjAzNi0uMDY2LjAzNS0uMDY3LjAzNS0uMDY4LjAzNS0uMDY5LjAzNS0uMDcuMDM0LS4wNzEuMDM0LS4wNzMuMDMzLS4wNzQuMDMzLS4xNS4wNjYtLjE1NS4wNjQtLjE2LjA2My0uMTYzLjA2MS0uMTY4LjA2LS4xNzIuMDU5LS4xNzUuMDU3LS4xOC4wNTYtLjE4My4wNTQtLjE4Ny4wNTMtLjE5MS4wNTEtLjE5NC4wNS0uMTk4LjA0OC0uMjAxLjA0Ni0uMjA1LjA0NS0uMjA4LjA0My0uMjExLjA0MS0uMjE0LjA0LS4yMTcuMDM4LS4yMi4wMzYtLjIyMy4wMzQtLjIyNS4wMzItLjIyOS4wMzEtLjIzMS4wMjgtLjIzMy4wMjctLjIzNi4wMjQtLjIzOS4wMjMtLjI0MS4wMi0uMjQyLjAxOS0uMjQ2LjAxNi0uMjQ3LjAxNS0uMjQ5LjAxMi0uMjUxLjAxLS4yNTMuMDA4LS4yNTUuMDA1LS4yNTYuMDA0LS4yNTguMDAxLS4yNTgtLjAwMS0uMjU2LS4wMDQtLjI1NS0uMDA1LS4yNTMtLjAwOC0uMjUxLS4wMS0uMjQ5LS4wMTItLjI0Ny0uMDE1LS4yNDUtLjAxNi0uMjQzLS4wMTktLjI0MS0uMDItLjIzOC0uMDIzLS4yMzYtLjAyNC0uMjM0LS4wMjctLjIzMS0uMDI4LS4yMjgtLjAzMS0uMjI2LS4wMzItLjIyMy0uMDM0LS4yMi0uMDM2LS4yMTctLjAzOC0uMjE0LS4wNC0uMjExLS4wNDEtLjIwOC0uMDQzLS4yMDQtLjA0NS0uMjAxLS4wNDYtLjE5OC0uMDQ4LS4xOTUtLjA1LS4xOS0uMDUxLS4xODctLjA1My0uMTg0LS4wNTQtLjE3OS0uMDU2LS4xNzYtLjA1Ny0uMTcyLS4wNTktLjE2Ny0uMDYtLjE2NC0uMDYxLS4xNTktLjA2My0uMTU1LS4wNjQtLjE1MS0uMDY2LS4wNzQtLjAzMy0uMDcyLS4wMzMtLjA3Mi0uMDM0LS4wNy0uMDM0LS4wNjktLjAzNS0uMDY4LS4wMzUtLjA2Ny0uMDM1LS4wNjYtLjAzNS0uMDY0LS4wMzYtLjA2My0uMDM2LS4wNjItLjAzNi0uMDYxLS4wMzYtLjA2LS4wMzctLjA1OC0uMDM3LS4wNTctLjAzNy0uMDU2LS4wMzgtLjA1NS0uMDM4LS4wNTMtLjAzOC0uMDUyLS4wMzgtLjA1MS0uMDM5LS4wNDktLjAzOS0uMDQ5LS4wMzktLjA0Ni0uMDM5LS4wNDYtLjA0LS4wNDQtLjA0LS4wNDMtLjA0LS4wNDEtLjA0LS4wNC0uMDQxLS4wMzktLjA0MS0uMDM3LS4wNDEtLjAzNi0uMDQxLS4wMzQtLjA0MS0uMDMzLS4wNDItLjAzMi0uMDQyLS4wMy0uMDQyLS4wMjktLjA0Mi0uMDI3LS4wNDItLjAyNi0uMDQzLS4wMjQtLjA0My0uMDIzLS4wNDMtLjAyMS0uMDQzLS4wMi0uMDQzLS4wMTgtLjA0NC0uMDE3LS4wNDMtLjAxNS0uMDQ0LS4wMTMtLjA0NC0uMDEyLS4wNDQtLjAxMS0uMDQ1LS4wMDktLjA0NC0uMDA3LS4wNDUtLjAwNi0uMDQ1LS4wMDQtLjA0NS0uMDAyLS4wNDUtLjAwMS0uMDQ1di0xN2wuMDAxLS4wNDUuMDAyLS4wNDUuMDA0LS4wNDUuMDA2LS4wNDUuMDA3LS4wNDUuMDA5LS4wNDQuMDExLS4wNDUuMDEyLS4wNDQuMDEzLS4wNDQuMDE1LS4wNDQuMDE3LS4wNDMuMDE4LS4wNDQuMDItLjA0My4wMjEtLjA0My4wMjMtLjA0My4wMjQtLjA0My4wMjYtLjA0My4wMjctLjA0Mi4wMjktLjA0Mi4wMy0uMDQyLjAzMi0uMDQyLjAzMy0uMDQyLjAzNC0uMDQxLjAzNi0uMDQxLjAzNy0uMDQxLjAzOS0uMDQxLjA0LS4wNDEuMDQxLS4wNC4wNDMtLjA0LjA0NC0uMDQuMDQ2LS4wNC4wNDYtLjAzOS4wNDktLjAzOS4wNDktLjAzOS4wNTEtLjAzOS4wNTItLjAzOC4wNTMtLjAzOC4wNTUtLjAzOC4wNTYtLjAzOC4wNTctLjAzNy4wNTgtLjAzNy4wNi0uMDM3LjA2MS0uMDM2LjA2Mi0uMDM2LjA2My0uMDM2LjA2NC0uMDM2LjA2Ni0uMDM1LjA2Ny0uMDM1LjA2OC0uMDM1LjA2OS0uMDM1LjA3LS4wMzQuMDcyLS4wMzQuMDcyLS4wMzMuMDc0LS4wMzMuMTUxLS4wNjYuMTU1LS4wNjQuMTU5LS4wNjMuMTY0LS4wNjEuMTY3LS4wNi4xNzItLjA1OS4xNzYtLjA1Ny4xNzktLjA1Ni4xODQtLjA1NC4xODctLjA1My4xOS0uMDUxLjE5NS0uMDUuMTk4LS4wNDguMjAxLS4wNDYuMjA0LS4wNDUuMjA4LS4wNDMuMjExLS4wNDEuMjE0LS4wNC4yMTctLjAzOC4yMi0uMDM2LjIyMy0uMDM0LjIyNi0uMDMyLjIyOC0uMDMxLjIzMS0uMDI4LjIzNC0uMDI3LjIzNi0uMDI0LjIzOC0uMDIzLjI0MS0uMDIuMjQzLS4wMTkuMjQ1LS4wMTYuMjQ3LS4wMTUuMjQ5LS4wMTIuMjUxLS4wMS4yNTMtLjAwOC4yNTUtLjAwNS4yNTYtLjAwNC4yNTgtLjAwMS4yNTguMDAxem0tOS4yNTggMjAuNDk5di4wMWwuMDAxLjAyMS4wMDMuMDIxLjAwNC4wMjIuMDA1LjAyMS4wMDYuMDIyLjAwNy4wMjIuMDA5LjAyMy4wMS4wMjIuMDExLjAyMy4wMTIuMDIzLjAxMy4wMjMuMDE1LjAyMy4wMTYuMDI0LjAxNy4wMjMuMDE4LjAyNC4wMTkuMDI0LjAyMS4wMjQuMDIyLjAyNS4wMjMuMDI0LjAyNC4wMjUuMDUyLjA0OS4wNTYuMDUuMDYxLjA1MS4wNjYuMDUxLjA3LjA1MS4wNzUuMDUxLjA3OS4wNTIuMDg0LjA1Mi4wODguMDUyLjA5Mi4wNTIuMDk3LjA1Mi4xMDIuMDUxLjEwNS4wNTIuMTEuMDUyLjExNC4wNTEuMTE5LjA1MS4xMjMuMDUxLjEyNy4wNS4xMzEuMDUuMTM1LjA1LjEzOS4wNDguMTQ0LjA0OS4xNDcuMDQ3LjE1Mi4wNDcuMTU1LjA0Ny4xNi4wNDUuMTYzLjA0NS4xNjcuMDQzLjE3MS4wNDMuMTc2LjA0MS4xNzguMDQxLjE4My4wMzkuMTg3LjAzOS4xOS4wMzcuMTk0LjAzNS4xOTcuMDM1LjIwMi4wMzMuMjA0LjAzMS4yMDkuMDMuMjEyLjAyOS4yMTYuMDI3LjIxOS4wMjUuMjIyLjAyNC4yMjYuMDIxLjIzLjAyLjIzMy4wMTguMjM2LjAxNi4yNC4wMTUuMjQzLjAxMi4yNDYuMDEuMjQ5LjAwOC4yNTMuMDA1LjI1Ni4wMDQuMjU5LjAwMS4yNi0uMDAxLjI1Ny0uMDA0LjI1NC0uMDA1LjI1LS4wMDguMjQ3LS4wMTEuMjQ0LS4wMTIuMjQxLS4wMTQuMjM3LS4wMTYuMjMzLS4wMTguMjMxLS4wMjEuMjI2LS4wMjEuMjI0LS4wMjQuMjItLjAyNi4yMTYtLjAyNy4yMTItLjAyOC4yMS0uMDMxLjIwNS0uMDMxLjIwMi0uMDM0LjE5OC0uMDM0LjE5NC0uMDM2LjE5MS0uMDM3LjE4Ny0uMDM5LjE4My0uMDQuMTc5LS4wNC4xNzUtLjA0Mi4xNzItLjA0My4xNjgtLjA0NC4xNjMtLjA0NS4xNi0uMDQ2LjE1NS0uMDQ2LjE1Mi0uMDQ3LjE0OC0uMDQ4LjE0My0uMDQ5LjEzOS0uMDQ5LjEzNi0uMDUuMTMxLS4wNS4xMjYtLjA1LjEyMy0uMDUxLjExOC0uMDUyLjExNC0uMDUxLjExLS4wNTIuMTA2LS4wNTIuMTAxLS4wNTIuMDk2LS4wNTIuMDkyLS4wNTIuMDg4LS4wNTMuMDgzLS4wNTEuMDc5LS4wNTIuMDc0LS4wNTIuMDctLjA1MS4wNjUtLjA1MS4wNi0uMDUxLjA1Ni0uMDUuMDUxLS4wNS4wMjMtLjAyNC4wMjMtLjAyNS4wMjEtLjAyNC4wMi0uMDI0LjAxOS0uMDI0LjAxOC0uMDI0LjAxNy0uMDI0LjAxNS0uMDIzLjAxNC0uMDI0LjAxMy0uMDIzLjAxMi0uMDIzLjAxLS4wMjMuMDEtLjAyMi4wMDgtLjAyMi4wMDYtLjAyMi4wMDYtLjAyMi4wMDQtLjAyMi4wMDQtLjAyMS4wMDEtLjAyMS4wMDEtLjAyMXYtNC4xMjdsLS4wNzcuMDU1LS4wOC4wNTMtLjA4My4wNTQtLjA4NS4wNTMtLjA4Ny4wNTItLjA5LjA1Mi0uMDkzLjA1MS0uMDk1LjA1LS4wOTcuMDUtLjEuMDQ5LS4xMDIuMDQ5LS4xMDUuMDQ4LS4xMDYuMDQ3LS4xMDkuMDQ3LS4xMTEuMDQ2LS4xMTQuMDQ1LS4xMTUuMDQ1LS4xMTguMDQ0LS4xMi4wNDMtLjEyMi4wNDItLjEyNC4wNDItLjEyNi4wNDEtLjEyOC4wNC0uMTMuMDQtLjEzMi4wMzgtLjEzNC4wMzgtLjEzNS4wMzctLjEzOC4wMzctLjEzOS4wMzUtLjE0Mi4wMzUtLjE0My4wMzQtLjE0NC4wMzMtLjE0Ny4wMzItLjE0OC4wMzEtLjE1LjAzLS4xNTEuMDMtLjE1My4wMjktLjE1NC4wMjctLjE1Ni4wMjctLjE1OC4wMjYtLjE1OS4wMjUtLjE2MS4wMjQtLjE2Mi4wMjMtLjE2My4wMjItLjE2NS4wMjEtLjE2Ni4wMi0uMTY3LjAxOS0uMTY5LjAxOC0uMTY5LjAxNy0uMTcxLjAxNi0uMTczLjAxNS0uMTczLjAxNC0uMTc1LjAxMy0uMTc1LjAxMi0uMTc3LjAxMS0uMTc4LjAxLS4xNzkuMDA4LS4xNzkuMDA4LS4xODEuMDA2LS4xODIuMDA1LS4xODIuMDA0LS4xODQuMDAzLS4xODQuMDAyaC0uMzdsLS4xODQtLjAwMi0uMTg0LS4wMDMtLjE4Mi0uMDA0LS4xODItLjAwNS0uMTgxLS4wMDYtLjE3OS0uMDA4LS4xNzktLjAwOC0uMTc4LS4wMS0uMTc2LS4wMTEtLjE3Ni0uMDEyLS4xNzUtLjAxMy0uMTczLS4wMTQtLjE3Mi0uMDE1LS4xNzEtLjAxNi0uMTctLjAxNy0uMTY5LS4wMTgtLjE2Ny0uMDE5LS4xNjYtLjAyLS4xNjUtLjAyMS0uMTYzLS4wMjItLjE2Mi0uMDIzLS4xNjEtLjAyNC0uMTU5LS4wMjUtLjE1Ny0uMDI2LS4xNTYtLjAyNy0uMTU1LS4wMjctLjE1My0uMDI5LS4xNTEtLjAzLS4xNS0uMDMtLjE0OC0uMDMxLS4xNDYtLjAzMi0uMTQ1LS4wMzMtLjE0My0uMDM0LS4xNDEtLjAzNS0uMTQtLjAzNS0uMTM3LS4wMzctLjEzNi0uMDM3LS4xMzQtLjAzOC0uMTMyLS4wMzgtLjEzLS4wNC0uMTI4LS4wNC0uMTI2LS4wNDEtLjEyNC0uMDQyLS4xMjItLjA0Mi0uMTItLjA0NC0uMTE3LS4wNDMtLjExNi0uMDQ1LS4xMTMtLjA0NS0uMTEyLS4wNDYtLjEwOS0uMDQ3LS4xMDYtLjA0Ny0uMTA1LS4wNDgtLjEwMi0uMDQ5LS4xLS4wNDktLjA5Ny0uMDUtLjA5NS0uMDUtLjA5My0uMDUyLS4wOS0uMDUxLS4wODctLjA1Mi0uMDg1LS4wNTMtLjA4My0uMDU0LS4wOC0uMDU0LS4wNzctLjA1NHY0LjEyN3ptMC01LjY1NHYuMDExbC4wMDEuMDIxLjAwMy4wMjEuMDA0LjAyMS4wMDUuMDIyLjAwNi4wMjIuMDA3LjAyMi4wMDkuMDIyLjAxLjAyMi4wMTEuMDIzLjAxMi4wMjMuMDEzLjAyMy4wMTUuMDI0LjAxNi4wMjMuMDE3LjAyNC4wMTguMDI0LjAxOS4wMjQuMDIxLjAyNC4wMjIuMDI0LjAyMy4wMjUuMDI0LjAyNC4wNTIuMDUuMDU2LjA1LjA2MS4wNS4wNjYuMDUxLjA3LjA1MS4wNzUuMDUyLjA3OS4wNTEuMDg0LjA1Mi4wODguMDUyLjA5Mi4wNTIuMDk3LjA1Mi4xMDIuMDUyLjEwNS4wNTIuMTEuMDUxLjExNC4wNTEuMTE5LjA1Mi4xMjMuMDUuMTI3LjA1MS4xMzEuMDUuMTM1LjA0OS4xMzkuMDQ5LjE0NC4wNDguMTQ3LjA0OC4xNTIuMDQ3LjE1NS4wNDYuMTYuMDQ1LjE2My4wNDUuMTY3LjA0NC4xNzEuMDQyLjE3Ni4wNDIuMTc4LjA0LjE4My4wNC4xODcuMDM4LjE5LjAzNy4xOTQuMDM2LjE5Ny4wMzQuMjAyLjAzMy4yMDQuMDMyLjIwOS4wMy4yMTIuMDI4LjIxNi4wMjcuMjE5LjAyNS4yMjIuMDI0LjIyNi4wMjIuMjMuMDIuMjMzLjAxOC4yMzYuMDE2LjI0LjAxNC4yNDMuMDEyLjI0Ni4wMS4yNDkuMDA4LjI1My4wMDYuMjU2LjAwMy4yNTkuMDAxLjI2LS4wMDEuMjU3LS4wMDMuMjU0LS4wMDYuMjUtLjAwOC4yNDctLjAxLjI0NC0uMDEyLjI0MS0uMDE1LjIzNy0uMDE2LjIzMy0uMDE4LjIzMS0uMDIuMjI2LS4wMjIuMjI0LS4wMjQuMjItLjAyNS4yMTYtLjAyNy4yMTItLjAyOS4yMS0uMDMuMjA1LS4wMzIuMjAyLS4wMzMuMTk4LS4wMzUuMTk0LS4wMzYuMTkxLS4wMzcuMTg3LS4wMzkuMTgzLS4wMzkuMTc5LS4wNDEuMTc1LS4wNDIuMTcyLS4wNDMuMTY4LS4wNDQuMTYzLS4wNDUuMTYtLjA0NS4xNTUtLjA0Ny4xNTItLjA0Ny4xNDgtLjA0OC4xNDMtLjA0OC4xMzktLjA1LjEzNi0uMDQ5LjEzMS0uMDUuMTI2LS4wNTEuMTIzLS4wNTEuMTE4LS4wNTEuMTE0LS4wNTIuMTEtLjA1Mi4xMDYtLjA1Mi4xMDEtLjA1Mi4wOTYtLjA1Mi4wOTItLjA1Mi4wODgtLjA1Mi4wODMtLjA1Mi4wNzktLjA1Mi4wNzQtLjA1MS4wNy0uMDUyLjA2NS0uMDUxLjA2LS4wNS4wNTYtLjA1MS4wNTEtLjA0OS4wMjMtLjAyNS4wMjMtLjAyNC4wMjEtLjAyNS4wMi0uMDI0LjAxOS0uMDI0LjAxOC0uMDI0LjAxNy0uMDI0LjAxNS0uMDIzLjAxNC0uMDIzLjAxMy0uMDI0LjAxMi0uMDIyLjAxLS4wMjMuMDEtLjAyMy4wMDgtLjAyMi4wMDYtLjAyMi4wMDYtLjAyMi4wMDQtLjAyMS4wMDQtLjAyMi4wMDEtLjAyMS4wMDEtLjAyMXYtNC4xMzlsLS4wNzcuMDU0LS4wOC4wNTQtLjA4My4wNTQtLjA4NS4wNTItLjA4Ny4wNTMtLjA5LjA1MS0uMDkzLjA1MS0uMDk1LjA1MS0uMDk3LjA1LS4xLjA0OS0uMTAyLjA0OS0uMTA1LjA0OC0uMTA2LjA0Ny0uMTA5LjA0Ny0uMTExLjA0Ni0uMTE0LjA0NS0uMTE1LjA0NC0uMTE4LjA0NC0uMTIuMDQ0LS4xMjIuMDQyLS4xMjQuMDQyLS4xMjYuMDQxLS4xMjguMDQtLjEzLjAzOS0uMTMyLjAzOS0uMTM0LjAzOC0uMTM1LjAzNy0uMTM4LjAzNi0uMTM5LjAzNi0uMTQyLjAzNS0uMTQzLjAzMy0uMTQ0LjAzMy0uMTQ3LjAzMy0uMTQ4LjAzMS0uMTUuMDMtLjE1MS4wMy0uMTUzLjAyOC0uMTU0LjAyOC0uMTU2LjAyNy0uMTU4LjAyNi0uMTU5LjAyNS0uMTYxLjAyNC0uMTYyLjAyMy0uMTYzLjAyMi0uMTY1LjAyMS0uMTY2LjAyLS4xNjcuMDE5LS4xNjkuMDE4LS4xNjkuMDE3LS4xNzEuMDE2LS4xNzMuMDE1LS4xNzMuMDE0LS4xNzUuMDEzLS4xNzUuMDEyLS4xNzcuMDExLS4xNzguMDA5LS4xNzkuMDA5LS4xNzkuMDA3LS4xODEuMDA3LS4xODIuMDA1LS4xODIuMDA0LS4xODQuMDAzLS4xODQuMDAyaC0uMzdsLS4xODQtLjAwMi0uMTg0LS4wMDMtLjE4Mi0uMDA0LS4xODItLjAwNS0uMTgxLS4wMDctLjE3OS0uMDA3LS4xNzktLjAwOS0uMTc4LS4wMDktLjE3Ni0uMDExLS4xNzYtLjAxMi0uMTc1LS4wMTMtLjE3My0uMDE0LS4xNzItLjAxNS0uMTcxLS4wMTYtLjE3LS4wMTctLjE2OS0uMDE4LS4xNjctLjAxOS0uMTY2LS4wMi0uMTY1LS4wMjEtLjE2My0uMDIyLS4xNjItLjAyMy0uMTYxLS4wMjQtLjE1OS0uMDI1LS4xNTctLjAyNi0uMTU2LS4wMjctLjE1NS0uMDI4LS4xNTMtLjAyOC0uMTUxLS4wMy0uMTUtLjAzLS4xNDgtLjAzMS0uMTQ2LS4wMzMtLjE0NS0uMDMzLS4xNDMtLjAzMy0uMTQxLS4wMzUtLjE0LS4wMzYtLjEzNy0uMDM2LS4xMzYtLjAzNy0uMTM0LS4wMzgtLjEzMi0uMDM5LS4xMy0uMDM5LS4xMjgtLjA0LS4xMjYtLjA0MS0uMTI0LS4wNDItLjEyMi0uMDQzLS4xMi0uMDQzLS4xMTctLjA0NC0uMTE2LS4wNDQtLjExMy0uMDQ2LS4xMTItLjA0Ni0uMTA5LS4wNDYtLjEwNi0uMDQ3LS4xMDUtLjA0OC0uMTAyLS4wNDktLjEtLjA0OS0uMDk3LS4wNS0uMDk1LS4wNTEtLjA5My0uMDUxLS4wOS0uMDUxLS4wODctLjA1My0uMDg1LS4wNTItLjA4My0uMDU0LS4wOC0uMDU0LS4wNzctLjA1NHY0LjEzOXptMC01LjY2NnYuMDExbC4wMDEuMDIuMDAzLjAyMi4wMDQuMDIxLjAwNS4wMjIuMDA2LjAyMS4wMDcuMDIyLjAwOS4wMjMuMDEuMDIyLjAxMS4wMjMuMDEyLjAyMy4wMTMuMDIzLjAxNS4wMjMuMDE2LjAyNC4wMTcuMDI0LjAxOC4wMjMuMDE5LjAyNC4wMjEuMDI1LjAyMi4wMjQuMDIzLjAyNC4wMjQuMDI1LjA1Mi4wNS4wNTYuMDUuMDYxLjA1LjA2Ni4wNTEuMDcuMDUxLjA3NS4wNTIuMDc5LjA1MS4wODQuMDUyLjA4OC4wNTIuMDkyLjA1Mi4wOTcuMDUyLjEwMi4wNTIuMTA1LjA1MS4xMS4wNTIuMTE0LjA1MS4xMTkuMDUxLjEyMy4wNTEuMTI3LjA1LjEzMS4wNS4xMzUuMDUuMTM5LjA0OS4xNDQuMDQ4LjE0Ny4wNDguMTUyLjA0Ny4xNTUuMDQ2LjE2LjA0NS4xNjMuMDQ1LjE2Ny4wNDMuMTcxLjA0My4xNzYuMDQyLjE3OC4wNC4xODMuMDQuMTg3LjAzOC4xOS4wMzcuMTk0LjAzNi4xOTcuMDM0LjIwMi4wMzMuMjA0LjAzMi4yMDkuMDMuMjEyLjAyOC4yMTYuMDI3LjIxOS4wMjUuMjIyLjAyNC4yMjYuMDIxLjIzLjAyLjIzMy4wMTguMjM2LjAxNy4yNC4wMTQuMjQzLjAxMi4yNDYuMDEuMjQ5LjAwOC4yNTMuMDA2LjI1Ni4wMDMuMjU5LjAwMS4yNi0uMDAxLjI1Ny0uMDAzLjI1NC0uMDA2LjI1LS4wMDguMjQ3LS4wMS4yNDQtLjAxMy4yNDEtLjAxNC4yMzctLjAxNi4yMzMtLjAxOC4yMzEtLjAyLjIyNi0uMDIyLjIyNC0uMDI0LjIyLS4wMjUuMjE2LS4wMjcuMjEyLS4wMjkuMjEtLjAzLjIwNS0uMDMyLjIwMi0uMDMzLjE5OC0uMDM1LjE5NC0uMDM2LjE5MS0uMDM3LjE4Ny0uMDM5LjE4My0uMDM5LjE3OS0uMDQxLjE3NS0uMDQyLjE3Mi0uMDQzLjE2OC0uMDQ0LjE2My0uMDQ1LjE2LS4wNDUuMTU1LS4wNDcuMTUyLS4wNDcuMTQ4LS4wNDguMTQzLS4wNDkuMTM5LS4wNDkuMTM2LS4wNDkuMTMxLS4wNTEuMTI2LS4wNS4xMjMtLjA1MS4xMTgtLjA1Mi4xMTQtLjA1MS4xMS0uMDUyLjEwNi0uMDUyLjEwMS0uMDUyLjA5Ni0uMDUyLjA5Mi0uMDUyLjA4OC0uMDUyLjA4My0uMDUyLjA3OS0uMDUyLjA3NC0uMDUyLjA3LS4wNTEuMDY1LS4wNTEuMDYtLjA1MS4wNTYtLjA1LjA1MS0uMDQ5LjAyMy0uMDI1LjAyMy0uMDI1LjAyMS0uMDI0LjAyLS4wMjQuMDE5LS4wMjQuMDE4LS4wMjQuMDE3LS4wMjQuMDE1LS4wMjMuMDE0LS4wMjQuMDEzLS4wMjMuMDEyLS4wMjMuMDEtLjAyMi4wMS0uMDIzLjAwOC0uMDIyLjAwNi0uMDIyLjAwNi0uMDIyLjAwNC0uMDIyLjAwNC0uMDIxLjAwMS0uMDIxLjAwMS0uMDIxdi00LjE1M2wtLjA3Ny4wNTQtLjA4LjA1NC0uMDgzLjA1My0uMDg1LjA1My0uMDg3LjA1My0uMDkuMDUxLS4wOTMuMDUxLS4wOTUuMDUxLS4wOTcuMDUtLjEuMDQ5LS4xMDIuMDQ4LS4xMDUuMDQ4LS4xMDYuMDQ4LS4xMDkuMDQ2LS4xMTEuMDQ2LS4xMTQuMDQ2LS4xMTUuMDQ0LS4xMTguMDQ0LS4xMi4wNDMtLjEyMi4wNDMtLjEyNC4wNDItLjEyNi4wNDEtLjEyOC4wNC0uMTMuMDM5LS4xMzIuMDM5LS4xMzQuMDM4LS4xMzUuMDM3LS4xMzguMDM2LS4xMzkuMDM2LS4xNDIuMDM0LS4xNDMuMDM0LS4xNDQuMDMzLS4xNDcuMDMyLS4xNDguMDMyLS4xNS4wMy0uMTUxLjAzLS4xNTMuMDI4LS4xNTQuMDI4LS4xNTYuMDI3LS4xNTguMDI2LS4xNTkuMDI0LS4xNjEuMDI0LS4xNjIuMDIzLS4xNjMuMDIzLS4xNjUuMDIxLS4xNjYuMDItLjE2Ny4wMTktLjE2OS4wMTgtLjE2OS4wMTctLjE3MS4wMTYtLjE3My4wMTUtLjE3My4wMTQtLjE3NS4wMTMtLjE3NS4wMTItLjE3Ny4wMS0uMTc4LjAxLS4xNzkuMDA5LS4xNzkuMDA3LS4xODEuMDA2LS4xODIuMDA2LS4xODIuMDA0LS4xODQuMDAzLS4xODQuMDAxLS4xODUuMDAxLS4xODUtLjAwMS0uMTg0LS4wMDEtLjE4NC0uMDAzLS4xODItLjAwNC0uMTgyLS4wMDYtLjE4MS0uMDA2LS4xNzktLjAwNy0uMTc5LS4wMDktLjE3OC0uMDEtLjE3Ni0uMDEtLjE3Ni0uMDEyLS4xNzUtLjAxMy0uMTczLS4wMTQtLjE3Mi0uMDE1LS4xNzEtLjAxNi0uMTctLjAxNy0uMTY5LS4wMTgtLjE2Ny0uMDE5LS4xNjYtLjAyLS4xNjUtLjAyMS0uMTYzLS4wMjMtLjE2Mi0uMDIzLS4xNjEtLjAyNC0uMTU5LS4wMjQtLjE1Ny0uMDI2LS4xNTYtLjAyNy0uMTU1LS4wMjgtLjE1My0uMDI4LS4xNTEtLjAzLS4xNS0uMDMtLjE0OC0uMDMyLS4xNDYtLjAzMi0uMTQ1LS4wMzMtLjE0My0uMDM0LS4xNDEtLjAzNC0uMTQtLjAzNi0uMTM3LS4wMzYtLjEzNi0uMDM3LS4xMzQtLjAzOC0uMTMyLS4wMzktLjEzLS4wMzktLjEyOC0uMDQxLS4xMjYtLjA0MS0uMTI0LS4wNDEtLjEyMi0uMDQzLS4xMi0uMDQzLS4xMTctLjA0NC0uMTE2LS4wNDQtLjExMy0uMDQ2LS4xMTItLjA0Ni0uMTA5LS4wNDYtLjEwNi0uMDQ4LS4xMDUtLjA0OC0uMTAyLS4wNDgtLjEtLjA1LS4wOTctLjA0OS0uMDk1LS4wNTEtLjA5My0uMDUxLS4wOS0uMDUyLS4wODctLjA1Mi0uMDg1LS4wNTMtLjA4My0uMDUzLS4wOC0uMDU0LS4wNzctLjA1NHY0LjE1M3ptOC43NC04LjE3OWwtLjI1Ny4wMDQtLjI1NC4wMDUtLjI1LjAwOC0uMjQ3LjAxMS0uMjQ0LjAxMi0uMjQxLjAxNC0uMjM3LjAxNi0uMjMzLjAxOC0uMjMxLjAyMS0uMjI2LjAyMi0uMjI0LjAyMy0uMjIuMDI2LS4yMTYuMDI3LS4yMTIuMDI4LS4yMS4wMzEtLjIwNS4wMzItLjIwMi4wMzMtLjE5OC4wMzQtLjE5NC4wMzYtLjE5MS4wMzgtLjE4Ny4wMzgtLjE4My4wNC0uMTc5LjA0MS0uMTc1LjA0Mi0uMTcyLjA0My0uMTY4LjA0My0uMTYzLjA0NS0uMTYuMDQ2LS4xNTUuMDQ2LS4xNTIuMDQ4LS4xNDguMDQ4LS4xNDMuMDQ4LS4xMzkuMDQ5LS4xMzYuMDUtLjEzMS4wNS0uMTI2LjA1MS0uMTIzLjA1MS0uMTE4LjA1MS0uMTE0LjA1Mi0uMTEuMDUyLS4xMDYuMDUyLS4xMDEuMDUyLS4wOTYuMDUyLS4wOTIuMDUyLS4wODguMDUyLS4wODMuMDUyLS4wNzkuMDUyLS4wNzQuMDUxLS4wNy4wNTItLjA2NS4wNTEtLjA2LjA1LS4wNTYuMDUtLjA1MS4wNS0uMDIzLjAyNS0uMDIzLjAyNC0uMDIxLjAyNC0uMDIuMDI1LS4wMTkuMDI0LS4wMTguMDI0LS4wMTcuMDIzLS4wMTUuMDI0LS4wMTQuMDIzLS4wMTMuMDIzLS4wMTIuMDIzLS4wMS4wMjMtLjAxLjAyMi0uMDA4LjAyMi0uMDA2LjAyMy0uMDA2LjAyMS0uMDA0LjAyMi0uMDA0LjAyMS0uMDAxLjAyMS0uMDAxLjAyMS4wMDEuMDIxLjAwMS4wMjEuMDA0LjAyMS4wMDQuMDIyLjAwNi4wMjEuMDA2LjAyMy4wMDguMDIyLjAxLjAyMi4wMS4wMjMuMDEyLjAyMy4wMTMuMDIzLjAxNC4wMjMuMDE1LjAyNC4wMTcuMDIzLjAxOC4wMjQuMDE5LjAyNC4wMi4wMjUuMDIxLjAyNC4wMjMuMDI0LjAyMy4wMjUuMDUxLjA1LjA1Ni4wNS4wNi4wNS4wNjUuMDUxLjA3LjA1Mi4wNzQuMDUxLjA3OS4wNTIuMDgzLjA1Mi4wODguMDUyLjA5Mi4wNTIuMDk2LjA1Mi4xMDEuMDUyLjEwNi4wNTIuMTEuMDUyLjExNC4wNTIuMTE4LjA1MS4xMjMuMDUxLjEyNi4wNTEuMTMxLjA1LjEzNi4wNS4xMzkuMDQ5LjE0My4wNDguMTQ4LjA0OC4xNTIuMDQ4LjE1NS4wNDYuMTYuMDQ2LjE2My4wNDUuMTY4LjA0My4xNzIuMDQzLjE3NS4wNDIuMTc5LjA0MS4xODMuMDQuMTg3LjAzOC4xOTEuMDM4LjE5NC4wMzYuMTk4LjAzNC4yMDIuMDMzLjIwNS4wMzIuMjEuMDMxLjIxMi4wMjguMjE2LjAyNy4yMi4wMjYuMjI0LjAyMy4yMjYuMDIyLjIzMS4wMjEuMjMzLjAxOC4yMzcuMDE2LjI0MS4wMTQuMjQ0LjAxMi4yNDcuMDExLjI1LjAwOC4yNTQuMDA1LjI1Ny4wMDQuMjYuMDAxLjI2LS4wMDEuMjU3LS4wMDQuMjU0LS4wMDUuMjUtLjAwOC4yNDctLjAxMS4yNDQtLjAxMi4yNDEtLjAxNC4yMzctLjAxNi4yMzMtLjAxOC4yMzEtLjAyMS4yMjYtLjAyMi4yMjQtLjAyMy4yMi0uMDI2LjIxNi0uMDI3LjIxMi0uMDI4LjIxLS4wMzEuMjA1LS4wMzIuMjAyLS4wMzMuMTk4LS4wMzQuMTk0LS4wMzYuMTkxLS4wMzguMTg3LS4wMzguMTgzLS4wNC4xNzktLjA0MS4xNzUtLjA0Mi4xNzItLjA0My4xNjgtLjA0My4xNjMtLjA0NS4xNi0uMDQ2LjE1NS0uMDQ2LjE1Mi0uMDQ4LjE0OC0uMDQ4LjE0My0uMDQ4LjEzOS0uMDQ5LjEzNi0uMDUuMTMxLS4wNS4xMjYtLjA1MS4xMjMtLjA1MS4xMTgtLjA1MS4xMTQtLjA1Mi4xMS0uMDUyLjEwNi0uMDUyLjEwMS0uMDUyLjA5Ni0uMDUyLjA5Mi0uMDUyLjA4OC0uMDUyLjA4My0uMDUyLjA3OS0uMDUyLjA3NC0uMDUxLjA3LS4wNTIuMDY1LS4wNTEuMDYtLjA1LjA1Ni0uMDUuMDUxLS4wNS4wMjMtLjAyNS4wMjMtLjAyNC4wMjEtLjAyNC4wMi0uMDI1LjAxOS0uMDI0LjAxOC0uMDI0LjAxNy0uMDIzLjAxNS0uMDI0LjAxNC0uMDIzLjAxMy0uMDIzLjAxMi0uMDIzLjAxLS4wMjMuMDEtLjAyMi4wMDgtLjAyMi4wMDYtLjAyMy4wMDYtLjAyMS4wMDQtLjAyMi4wMDQtLjAyMS4wMDEtLjAyMS4wMDEtLjAyMS0uMDAxLS4wMjEtLjAwMS0uMDIxLS4wMDQtLjAyMS0uMDA0LS4wMjItLjAwNi0uMDIxLS4wMDYtLjAyMy0uMDA4LS4wMjItLjAxLS4wMjItLjAxLS4wMjMtLjAxMi0uMDIzLS4wMTMtLjAyMy0uMDE0LS4wMjMtLjAxNS0uMDI0LS4wMTctLjAyMy0uMDE4LS4wMjQtLjAxOS0uMDI0LS4wMi0uMDI1LS4wMjEtLjAyNC0uMDIzLS4wMjQtLjAyMy0uMDI1LS4wNTEtLjA1LS4wNTYtLjA1LS4wNi0uMDUtLjA2NS0uMDUxLS4wNy0uMDUyLS4wNzQtLjA1MS0uMDc5LS4wNTItLjA4My0uMDUyLS4wODgtLjA1Mi0uMDkyLS4wNTItLjA5Ni0uMDUyLS4xMDEtLjA1Mi0uMTA2LS4wNTItLjExLS4wNTItLjExNC0uMDUyLS4xMTgtLjA1MS0uMTIzLS4wNTEtLjEyNi0uMDUxLS4xMzEtLjA1LS4xMzYtLjA1LS4xMzktLjA0OS0uMTQzLS4wNDgtLjE0OC0uMDQ4LS4xNTItLjA0OC0uMTU1LS4wNDYtLjE2LS4wNDYtLjE2My0uMDQ1LS4xNjgtLjA0My0uMTcyLS4wNDMtLjE3NS0uMDQyLS4xNzktLjA0MS0uMTgzLS4wNC0uMTg3LS4wMzgtLjE5MS0uMDM4LS4xOTQtLjAzNi0uMTk4LS4wMzQtLjIwMi0uMDMzLS4yMDUtLjAzMi0uMjEtLjAzMS0uMjEyLS4wMjgtLjIxNi0uMDI3LS4yMi0uMDI2LS4yMjQtLjAyMy0uMjI2LS4wMjItLjIzMS0uMDIxLS4yMzMtLjAxOC0uMjM3LS4wMTYtLjI0MS0uMDE0LS4yNDQtLjAxMi0uMjQ3LS4wMTEtLjI1LS4wMDgtLjI1NC0uMDA1LS4yNTctLjAwNC0uMjYtLjAwMS0uMjYuMDAxeiIgdHJhbnNmb3JtPSJzY2FsZSguNSkiPjwvcGF0aD48L3N5bWJvbD48L2RlZnM+PGRlZnM+PHN5bWJvbCBoZWlnaHQ9IjI0IiB3aWR0aD0iMjQiIGlkPSJjbG9jayI+PHBhdGggZD0iTTEyIDJjNS41MTQgMCAxMCA0LjQ4NiAxMCAxMHMtNC40ODYgMTAtMTAgMTAtMTAtNC40ODYtMTAtMTAgNC40ODYtMTAgMTAtMTB6bTAtMmMtNi42MjcgMC0xMiA1LjM3My0xMiAxMnM1LjM3MyAxMiAxMiAxMiAxMi01LjM3MyAxMi0xMi01LjM3My0xMi0xMi0xMnptNS44NDggMTIuNDU5Yy4yMDIuMDM4LjIwMi4zMzMuMDAxLjM3Mi0xLjkwNy4zNjEtNi4wNDUgMS4xMTEtNi41NDcgMS4xMTEtLjcxOSAwLTEuMzAxLS41ODItMS4zMDEtMS4zMDEgMC0uNTEyLjc3LTUuNDQ3IDEuMTI1LTcuNDQ1LjAzNC0uMTkyLjMxMi0uMTgxLjM0My4wMTRsLjk4NSA2LjIzOCA1LjM5NCAxLjAxMXoiIHRyYW5zZm9ybT0ic2NhbGUoLjUpIj48L3BhdGg+PC9zeW1ib2w+PC9kZWZzPjxnPjxsaW5lIHN0cm9rZT0iIzk5OSIgc3Ryb2tlLXdpZHRoPSIwLjVweCIgY2xhc3M9IjIwMCIgeTI9IjQ2NCIgeDI9Ijc1IiB5MT0iNSIgeDE9Ijc1IiBpZD0iYWN0b3I4Ij48L2xpbmU+PGcgaWQ9InJvb3QtOCI+PHJlY3QgY2xhc3M9ImFjdG9yIiByeT0iMyIgcng9IjMiIGhlaWdodD0iNjUiIHdpZHRoPSIxNTAiIHN0cm9rZT0iIzY2NiIgZmlsbD0iI2VhZWFlYSIgeT0iMCIgeD0iMCI+PC9yZWN0Pjx0ZXh0IHN0eWxlPSJ0ZXh0LWFuY2hvcjogbWlkZGxlOyBmb250LXNpemU6IDE0cHg7IGZvbnQtd2VpZ2h0OiA0MDA7IGZvbnQtZmFtaWx5OiAmcXVvdDtPcGVuIFNhbnMmcXVvdDssIHNhbnMtc2VyaWY7IiBjbGFzcz0iYWN0b3IiIGFsaWdubWVudC1iYXNlbGluZT0iY2VudHJhbCIgZG9taW5hbnQtYmFzZWxpbmU9ImNlbnRyYWwiIHk9IjMyLjUiIHg9Ijc1Ij48dHNwYW4gZHk9IjAiIHg9Ijc1Ij5GZWF0dXJlQnJhbmNoZXM8L3RzcGFuPjwvdGV4dD48L2c+PC9nPjxnPjxsaW5lIHN0cm9rZT0iIzk5OSIgc3Ryb2tlLXdpZHRoPSIwLjVweCIgY2xhc3M9IjIwMCIgeTI9IjQ2NCIgeDI9IjYwOSIgeTE9IjUiIHgxPSI2MDkiIGlkPSJhY3RvcjkiPjwvbGluZT48ZyBpZD0icm9vdC05Ij48cmVjdCBjbGFzcz0iYWN0b3IiIHJ5PSIzIiByeD0iMyIgaGVpZ2h0PSI2NSIgd2lkdGg9IjE1MCIgc3Ryb2tlPSIjNjY2IiBmaWxsPSIjZWFlYWVhIiB5PSIwIiB4PSI1MzQiPjwvcmVjdD48dGV4dCBzdHlsZT0idGV4dC1hbmNob3I6IG1pZGRsZTsgZm9udC1zaXplOiAxNHB4OyBmb250LXdlaWdodDogNDAwOyBmb250LWZhbWlseTogJnF1b3Q7T3BlbiBTYW5zJnF1b3Q7LCBzYW5zLXNlcmlmOyIgY2xhc3M9ImFjdG9yIiBhbGlnbm1lbnQtYmFzZWxpbmU9ImNlbnRyYWwiIGRvbWluYW50LWJhc2VsaW5lPSJjZW50cmFsIiB5PSIzMi41IiB4PSI2MDkiPjx0c3BhbiBkeT0iMCIgeD0iNjA5Ij5NYWluQnJhbmNoPC90c3Bhbj48L3RleHQ+PC9nPjwvZz48Zz48bGluZSBzdHJva2U9IiM5OTkiIHN0cm9rZS13aWR0aD0iMC41cHgiIGNsYXNzPSIyMDAiIHkyPSI0NjQiIHgyPSI4MDkiIHkxPSI1IiB4MT0iODA5IiBpZD0iYWN0b3IxMCI+PC9saW5lPjxnIGlkPSJyb290LTEwIj48cmVjdCBjbGFzcz0iYWN0b3IiIHJ5PSIzIiByeD0iMyIgaGVpZ2h0PSI2NSIgd2lkdGg9IjE1MCIgc3Ryb2tlPSIjNjY2IiBmaWxsPSIjZWFlYWVhIiB5PSIwIiB4PSI3MzQiPjwvcmVjdD48dGV4dCBzdHlsZT0idGV4dC1hbmNob3I6IG1pZGRsZTsgZm9udC1zaXplOiAxNHB4OyBmb250LXdlaWdodDogNDAwOyBmb250LWZhbWlseTogJnF1b3Q7T3BlbiBTYW5zJnF1b3Q7LCBzYW5zLXNlcmlmOyIgY2xhc3M9ImFjdG9yIiBhbGlnbm1lbnQtYmFzZWxpbmU9ImNlbnRyYWwiIGRvbWluYW50LWJhc2VsaW5lPSJjZW50cmFsIiB5PSIzMi41IiB4PSI4MDkiPjx0c3BhbiBkeT0iMCIgeD0iODA5Ij5Ib3RmaXhCcmFuY2hlczwvdHNwYW4+PC90ZXh0PjwvZz48L2c+PGc+PGxpbmUgc3Ryb2tlPSIjOTk5IiBzdHJva2Utd2lkdGg9IjAuNXB4IiBjbGFzcz0iMjAwIiB5Mj0iNDY0IiB4Mj0iMTAwOSIgeTE9IjUiIHgxPSIxMDA5IiBpZD0iYWN0b3IxMSI+PC9saW5lPjxnIGlkPSJyb290LTExIj48cmVjdCBjbGFzcz0iYWN0b3IiIHJ5PSIzIiByeD0iMyIgaGVpZ2h0PSI2NSIgd2lkdGg9IjE1MCIgc3Ryb2tlPSIjNjY2IiBmaWxsPSIjZWFlYWVhIiB5PSIwIiB4PSI5MzQiPjwvcmVjdD48dGV4dCBzdHlsZT0idGV4dC1hbmNob3I6IG1pZGRsZTsgZm9udC1zaXplOiAxNHB4OyBmb250LXdlaWdodDogNDAwOyBmb250LWZhbWlseTogJnF1b3Q7T3BlbiBTYW5zJnF1b3Q7LCBzYW5zLXNlcmlmOyIgY2xhc3M9ImFjdG9yIiBhbGlnbm1lbnQtYmFzZWxpbmU9ImNlbnRyYWwiIGRvbWluYW50LWJhc2VsaW5lPSJjZW50cmFsIiB5PSIzMi41IiB4PSIxMDA5Ij48dHNwYW4gZHk9IjAiIHg9IjEwMDkiPlJlbGVhc2VCcmFuY2hlczwvdHNwYW4+PC90ZXh0PjwvZz48L2c+PGRlZnM+PG1hcmtlciBvcmllbnQ9ImF1dG8iIG1hcmtlckhlaWdodD0iMTIiIG1hcmtlcldpZHRoPSIxMiIgbWFya2VyVW5pdHM9InVzZXJTcGFjZU9uVXNlIiByZWZZPSI1IiByZWZYPSI5IiBpZD0iYXJyb3doZWFkIj48cGF0aCBkPSJNIDAgMCBMIDEwIDUgTCAwIDEwIHoiPjwvcGF0aD48L21hcmtlcj48L2RlZnM+PGRlZnM+PG1hcmtlciByZWZZPSI0IiByZWZYPSIxNiIgb3JpZW50PSJhdXRvIiBtYXJrZXJIZWlnaHQ9IjgiIG1hcmtlcldpZHRoPSIxNSIgaWQ9ImNyb3NzaGVhZCI+PHBhdGggc3R5bGU9InN0cm9rZS1kYXNoYXJyYXk6IDAsIDA7IiBkPSJNIDksMiBWIDYgTDE2LDQgWiIgc3Ryb2tlLXdpZHRoPSIxcHgiIHN0cm9rZT0iIzAwMDAwMCIgZmlsbD0iYmxhY2siPjwvcGF0aD48cGF0aCBzdHlsZT0ic3Ryb2tlLWRhc2hhcnJheTogMCwgMDsiIGQ9Ik0gMCwxIEwgNiw3IE0gNiwxIEwgMCw3IiBzdHJva2Utd2lkdGg9IjFweCIgc3Ryb2tlPSIjMDAwMDAwIiBmaWxsPSJub25lIj48L3BhdGg+PC9tYXJrZXI+PC9kZWZzPjxkZWZzPjxtYXJrZXIgb3JpZW50PSJhdXRvIiBtYXJrZXJIZWlnaHQ9IjI4IiBtYXJrZXJXaWR0aD0iMjAiIHJlZlk9IjciIHJlZlg9IjE4IiBpZD0iZmlsbGVkLWhlYWQiPjxwYXRoIGQ9Ik0gMTgsNyBMOSwxMyBMMTQsNyBMOSwxIFoiPjwvcGF0aD48L21hcmtlcj48L2RlZnM+PGRlZnM+PG1hcmtlciBvcmllbnQ9ImF1dG8iIG1hcmtlckhlaWdodD0iNDAiIG1hcmtlcldpZHRoPSI2MCIgcmVmWT0iMTUiIHJlZlg9IjE1IiBpZD0ic2VxdWVuY2VudW1iZXIiPjxjaXJjbGUgcj0iNiIgY3k9IjE1IiBjeD0iMTUiPjwvY2lyY2xlPjwvbWFya2VyPjwvZGVmcz48Zz48bGluZSBjbGFzcz0ibG9vcExpbmUiIHkyPSIxMjkiIHgyPSI5MTUiIHkxPSIxMjkiIHgxPSI3MDMiPjwvbGluZT48bGluZSBjbGFzcz0ibG9vcExpbmUiIHkyPSIyNjgiIHgyPSI5MTUiIHkxPSIxMjkiIHgxPSI5MTUiPjwvbGluZT48bGluZSBjbGFzcz0ibG9vcExpbmUiIHkyPSIyNjgiIHgyPSI5MTUiIHkxPSIyNjgiIHgxPSI3MDMiPjwvbGluZT48bGluZSBjbGFzcz0ibG9vcExpbmUiIHkyPSIyNjgiIHgyPSI3MDMiIHkxPSIxMjkiIHgxPSI3MDMiPjwvbGluZT48cG9seWdvbiBjbGFzcz0ibGFiZWxCb3giIHBvaW50cz0iNzAzLDEyOSA3NTMsMTI5IDc1MywxNDIgNzQ0LjYsMTQ5IDcwMywxNDkiPjwvcG9seWdvbj48dGV4dCBzdHlsZT0iZm9udC1mYW1pbHk6ICZxdW90O3RyZWJ1Y2hldCBtcyZxdW90OywgdmVyZGFuYSwgYXJpYWwsIHNhbnMtc2VyaWY7IGZvbnQtc2l6ZTogMTZweDsgZm9udC13ZWlnaHQ6IDQwMDsiIGNsYXNzPSJsYWJlbFRleHQiIGFsaWdubWVudC1iYXNlbGluZT0ibWlkZGxlIiBkb21pbmFudC1iYXNlbGluZT0ibWlkZGxlIiB0ZXh0LWFuY2hvcj0ibWlkZGxlIiB5PSIxNDIiIHg9IjcyOCI+bG9vcDwvdGV4dD48dGV4dCBzdHlsZT0iZm9udC1mYW1pbHk6ICZxdW90O3RyZWJ1Y2hldCBtcyZxdW90OywgdmVyZGFuYSwgYXJpYWwsIHNhbnMtc2VyaWY7IGZvbnQtc2l6ZTogMTZweDsgZm9udC13ZWlnaHQ6IDQwMDsiIGNsYXNzPSJsb29wVGV4dCIgdGV4dC1hbmNob3I9Im1pZGRsZSIgeT0iMTQ3IiB4PSI4MzQiPjx0c3BhbiB4PSI4MzQiPjwvdHNwYW4+PC90ZXh0PjwvZz48Zz48cmVjdCBjbGFzcz0ibm90ZSIgcnk9IjAiIHJ4PSIwIiBoZWlnaHQ9IjM4IiB3aWR0aD0iMTUwIiBzdHJva2U9IiM2NjYiIGZpbGw9IiNFREYyQUUiIHk9IjI3OCIgeD0iOTM0Ij48L3JlY3Q+PHRleHQgc3R5bGU9ImZvbnQtZmFtaWx5OiAmcXVvdDt0cmVidWNoZXQgbXMmcXVvdDssIHZlcmRhbmEsIGFyaWFsLCBzYW5zLXNlcmlmOyBmb250LXNpemU6IDE0cHg7IGZvbnQtd2VpZ2h0OiA0MDA7IiBkeT0iMWVtIiBjbGFzcz0ibm90ZVRleHQiIGFsaWdubWVudC1iYXNlbGluZT0ibWlkZGxlIiBkb21pbmFudC1iYXNlbGluZT0ibWlkZGxlIiB0ZXh0LWFuY2hvcj0ibWlkZGxlIiB5PSIyODMiIHg9IjEwMDkiPjx0c3BhbiB4PSIxMDA5Ij5SYXRpb25hbCB0aG91Z2h0cyE8L3RzcGFuPjwvdGV4dD48L2c+PHRleHQgc3R5bGU9ImZvbnQtZmFtaWx5OiAmcXVvdDt0cmVidWNoZXQgbXMmcXVvdDssIHZlcmRhbmEsIGFyaWFsLCBzYW5zLXNlcmlmOyBmb250LXNpemU6IDE2cHg7IGZvbnQtd2VpZ2h0OiA0MDA7IiBkeT0iMWVtIiBjbGFzcz0ibWVzc2FnZVRleHQiIGFsaWdubWVudC1iYXNlbGluZT0ibWlkZGxlIiBkb21pbmFudC1iYXNlbGluZT0ibWlkZGxlIiB0ZXh0LWFuY2hvcj0ibWlkZGxlIiB5PSI4MCIgeD0iMzQyIj5mZWF0dXJlLzEyMzQtVGFza0Rlc2NyaXB0aW9uIHdoZXJlIDEyMzQgaXMgRGV2T3BzIFdvcmtJdGVtIG5yPC90ZXh0PjxsaW5lIHN0eWxlPSJmaWxsOiBub25lOyIgbWFya2VyLXN0YXJ0PSJ1cmwoI3NlcXVlbmNlbnVtYmVyKSIgbWFya2VyLWVuZD0idXJsKCNhcnJvd2hlYWQpIiBzdHJva2U9Im5vbmUiIHN0cm9rZS13aWR0aD0iMiIgY2xhc3M9Im1lc3NhZ2VMaW5lMCIgeTI9IjExOSIgeDI9Ijc1IiB5MT0iMTE5IiB4MT0iNjA5Ij48L2xpbmU+PHRleHQgY2xhc3M9InNlcXVlbmNlTnVtYmVyIiB0ZXh0LWFuY2hvcj0ibWlkZGxlIiBmb250LXNpemU9IjEycHgiIGZvbnQtZmFtaWx5PSJzYW5zLXNlcmlmIiB5PSIxMjMiIHg9IjYwOSI+MTwvdGV4dD48dGV4dCBzdHlsZT0iZm9udC1mYW1pbHk6ICZxdW90O3RyZWJ1Y2hldCBtcyZxdW90OywgdmVyZGFuYSwgYXJpYWwsIHNhbnMtc2VyaWY7IGZvbnQtc2l6ZTogMTZweDsgZm9udC13ZWlnaHQ6IDQwMDsiIGR5PSIxZW0iIGNsYXNzPSJtZXNzYWdlVGV4dCIgYWxpZ25tZW50LWJhc2VsaW5lPSJtaWRkbGUiIGRvbWluYW50LWJhc2VsaW5lPSJtaWRkbGUiIHRleHQtYW5jaG9yPSJtaWRkbGUiIHk9IjE1OSIgeD0iODA5Ij5GaWdodCBhZ2FpbnN0IGh5cG9jaG9uZHJpYTwvdGV4dD48cGF0aCBzdHlsZT0iZmlsbDogbm9uZTsiIG1hcmtlci1zdGFydD0idXJsKCNzZXF1ZW5jZW51bWJlcikiIG1hcmtlci1lbmQ9InVybCgjYXJyb3doZWFkKSIgc3Ryb2tlPSJub25lIiBzdHJva2Utd2lkdGg9IjIiIGNsYXNzPSJtZXNzYWdlTGluZTAiIGQ9Ik0gODA5LDE5OCBDIDg2OSwxODggODY5LDIyOCA4MDksMjE4Ij48L3BhdGg+PHRleHQgY2xhc3M9InNlcXVlbmNlTnVtYmVyIiB0ZXh0LWFuY2hvcj0ibWlkZGxlIiBmb250LXNpemU9IjEycHgiIGZvbnQtZmFtaWx5PSJzYW5zLXNlcmlmIiB5PSIyMDIiIHg9IjgwOSI+MjwvdGV4dD48dGV4dCBzdHlsZT0iZm9udC1mYW1pbHk6ICZxdW90O3RyZWJ1Y2hldCBtcyZxdW90OywgdmVyZGFuYSwgYXJpYWwsIHNhbnMtc2VyaWY7IGZvbnQtc2l6ZTogMTZweDsgZm9udC13ZWlnaHQ6IDQwMDsiIGR5PSIxZW0iIGNsYXNzPSJtZXNzYWdlVGV4dCIgYWxpZ25tZW50LWJhc2VsaW5lPSJtaWRkbGUiIGRvbWluYW50LWJhc2VsaW5lPSJtaWRkbGUiIHRleHQtYW5jaG9yPSJtaWRkbGUiIHk9IjMzMSIgeD0iOTA5Ij5HcmVhdCE8L3RleHQ+PGxpbmUgc3R5bGU9InN0cm9rZS1kYXNoYXJyYXk6IDMsIDM7IGZpbGw6IG5vbmU7IiBtYXJrZXItc3RhcnQ9InVybCgjc2VxdWVuY2VudW1iZXIpIiBtYXJrZXItZW5kPSJ1cmwoI2Fycm93aGVhZCkiIHN0cm9rZT0ibm9uZSIgc3Ryb2tlLXdpZHRoPSIyIiBjbGFzcz0ibWVzc2FnZUxpbmUxIiB5Mj0iMzcwIiB4Mj0iODA5IiB5MT0iMzcwIiB4MT0iMTAwOSI+PC9saW5lPjx0ZXh0IGNsYXNzPSJzZXF1ZW5jZU51bWJlciIgdGV4dC1hbmNob3I9Im1pZGRsZSIgZm9udC1zaXplPSIxMnB4IiBmb250LWZhbWlseT0ic2Fucy1zZXJpZiIgeT0iMzc0IiB4PSIxMDA5Ij4zPC90ZXh0Pjx0ZXh0IHN0eWxlPSJmb250LWZhbWlseTogJnF1b3Q7dHJlYnVjaGV0IG1zJnF1b3Q7LCB2ZXJkYW5hLCBhcmlhbCwgc2Fucy1zZXJpZjsgZm9udC1zaXplOiAxNnB4OyBmb250LXdlaWdodDogNDAwOyIgZHk9IjFlbSIgY2xhc3M9Im1lc3NhZ2VUZXh0IiBhbGlnbm1lbnQtYmFzZWxpbmU9Im1pZGRsZSIgZG9taW5hbnQtYmFzZWxpbmU9Im1pZGRsZSIgdGV4dC1hbmNob3I9Im1pZGRsZSIgeT0iMzg1IiB4PSI5MDkiPkhvdyBhYm91dCB5b3U/PC90ZXh0PjxsaW5lIHN0eWxlPSJmaWxsOiBub25lOyIgbWFya2VyLXN0YXJ0PSJ1cmwoI3NlcXVlbmNlbnVtYmVyKSIgbWFya2VyLWVuZD0idXJsKCNhcnJvd2hlYWQpIiBzdHJva2U9Im5vbmUiIHN0cm9rZS13aWR0aD0iMiIgY2xhc3M9Im1lc3NhZ2VMaW5lMCIgeTI9IjQyNCIgeDI9IjgwOSIgeTE9IjQyNCIgeDE9IjEwMDkiPjwvbGluZT48dGV4dCBjbGFzcz0ic2VxdWVuY2VOdW1iZXIiIHRleHQtYW5jaG9yPSJtaWRkbGUiIGZvbnQtc2l6ZT0iMTJweCIgZm9udC1mYW1pbHk9InNhbnMtc2VyaWYiIHk9IjQyOCIgeD0iMTAwOSI+NDwvdGV4dD48Zz48cmVjdCBjbGFzcz0iYWN0b3IiIHJ5PSIzIiByeD0iMyIgaGVpZ2h0PSI2NSIgd2lkdGg9IjE1MCIgc3Ryb2tlPSIjNjY2IiBmaWxsPSIjZWFlYWVhIiB5PSI0NDQiIHg9IjAiPjwvcmVjdD48dGV4dCBzdHlsZT0idGV4dC1hbmNob3I6IG1pZGRsZTsgZm9udC1zaXplOiAxNHB4OyBmb250LXdlaWdodDogNDAwOyBmb250LWZhbWlseTogJnF1b3Q7T3BlbiBTYW5zJnF1b3Q7LCBzYW5zLXNlcmlmOyIgY2xhc3M9ImFjdG9yIiBhbGlnbm1lbnQtYmFzZWxpbmU9ImNlbnRyYWwiIGRvbWluYW50LWJhc2VsaW5lPSJjZW50cmFsIiB5PSI0NzYuNSIgeD0iNzUiPjx0c3BhbiBkeT0iMCIgeD0iNzUiPkZlYXR1cmVCcmFuY2hlczwvdHNwYW4+PC90ZXh0PjwvZz48Zz48cmVjdCBjbGFzcz0iYWN0b3IiIHJ5PSIzIiByeD0iMyIgaGVpZ2h0PSI2NSIgd2lkdGg9IjE1MCIgc3Ryb2tlPSIjNjY2IiBmaWxsPSIjZWFlYWVhIiB5PSI0NDQiIHg9IjUzNCI+PC9yZWN0Pjx0ZXh0IHN0eWxlPSJ0ZXh0LWFuY2hvcjogbWlkZGxlOyBmb250LXNpemU6IDE0cHg7IGZvbnQtd2VpZ2h0OiA0MDA7IGZvbnQtZmFtaWx5OiAmcXVvdDtPcGVuIFNhbnMmcXVvdDssIHNhbnMtc2VyaWY7IiBjbGFzcz0iYWN0b3IiIGFsaWdubWVudC1iYXNlbGluZT0iY2VudHJhbCIgZG9taW5hbnQtYmFzZWxpbmU9ImNlbnRyYWwiIHk9IjQ3Ni41IiB4PSI2MDkiPjx0c3BhbiBkeT0iMCIgeD0iNjA5Ij5NYWluQnJhbmNoPC90c3Bhbj48L3RleHQ+PC9nPjxnPjxyZWN0IGNsYXNzPSJhY3RvciIgcnk9IjMiIHJ4PSIzIiBoZWlnaHQ9IjY1IiB3aWR0aD0iMTUwIiBzdHJva2U9IiM2NjYiIGZpbGw9IiNlYWVhZWEiIHk9IjQ0NCIgeD0iNzM0Ij48L3JlY3Q+PHRleHQgc3R5bGU9InRleHQtYW5jaG9yOiBtaWRkbGU7IGZvbnQtc2l6ZTogMTRweDsgZm9udC13ZWlnaHQ6IDQwMDsgZm9udC1mYW1pbHk6ICZxdW90O09wZW4gU2FucyZxdW90Oywgc2Fucy1zZXJpZjsiIGNsYXNzPSJhY3RvciIgYWxpZ25tZW50LWJhc2VsaW5lPSJjZW50cmFsIiBkb21pbmFudC1iYXNlbGluZT0iY2VudHJhbCIgeT0iNDc2LjUiIHg9IjgwOSI+PHRzcGFuIGR5PSIwIiB4PSI4MDkiPkhvdGZpeEJyYW5jaGVzPC90c3Bhbj48L3RleHQ+PC9nPjxnPjxyZWN0IGNsYXNzPSJhY3RvciIgcnk9IjMiIHJ4PSIzIiBoZWlnaHQ9IjY1IiB3aWR0aD0iMTUwIiBzdHJva2U9IiM2NjYiIGZpbGw9IiNlYWVhZWEiIHk9IjQ0NCIgeD0iOTM0Ij48L3JlY3Q+PHRleHQgc3R5bGU9InRleHQtYW5jaG9yOiBtaWRkbGU7IGZvbnQtc2l6ZTogMTRweDsgZm9udC13ZWlnaHQ6IDQwMDsgZm9udC1mYW1pbHk6ICZxdW90O09wZW4gU2FucyZxdW90Oywgc2Fucy1zZXJpZjsiIGNsYXNzPSJhY3RvciIgYWxpZ25tZW50LWJhc2VsaW5lPSJjZW50cmFsIiBkb21pbmFudC1iYXNlbGluZT0iY2VudHJhbCIgeT0iNDc2LjUiIHg9IjEwMDkiPjx0c3BhbiBkeT0iMCIgeD0iMTAwOSI+UmVsZWFzZUJyYW5jaGVzPC90c3Bhbj48L3RleHQ+PC9nPjwvc3ZnPg==;points=[[0,0,0,0,0],[0,0.25,0,0,0],[0,0.5,0,0,0],[0,0.75,0,0,0],[0,1,0,0,0],[0.25,0,0,0,0],[0.25,1,0,0,0],[0.5,0,0,0,0],[0.5,1,0,0,0],[0.56,0.36,0,0,0],[0.75,0,0,0,0],[0.75,1,0,0,0],[1,0,0,0,0],[1,0.25,0,0,0],[1,0.5,0,0,0],[1,0.75,0,0,0],[1,1,0,0,0]];" vertex="1" parent="1">
                        <mxGeometry width="850" height="700" as="geometry"/>
                    </mxCell>
                </UserObject>
            </root>
        </mxGraphModel>
    </diagram>
</mxfile>